<?xml version="1.0" encoding="utf-8"?>
<!-- Generator: Adobe Illustrator 27.5.0, SVG Export Plug-In . SVG Version: 6.00 Build 0)  -->
<svg version="1.1" id="Layer_1" xmlns="http://www.w3.org/2000/svg" xmlns:xlink="http://www.w3.org/1999/xlink" x="0px" y="0px"
	 viewBox="0 0 701.5 787.2" style="enable-background:new 0 0 701.5 787.2;" xml:space="preserve">
<style type="text/css">
	.st0{fill:#FFFFFF;stroke:#000000;stroke-miterlimit:10;}
	.st1{fill-rule:evenodd;clip-rule:evenodd;}
	.st2{fill:#FFFFFF;}
</style>
<g>
	<path d="M3194.4,111.3c44.2,0.1,88.4,1.1,132.3,3c44.6,1.9,88.7,4.7,132.3,8.3c35,2.9,62.4,14.9,82.5,34.9
		c20.4,20.4,32.8,48.9,37.2,84.3c6.3,50.6,9.4,101,9.4,151.4c0,50.4-3.1,100.8-9.4,151.4c-4.4,35.4-16.8,63.9-37.2,84.3
		c-20,20-47.5,32-82.5,34.9c-43.6,3.6-87.7,6.4-132.3,8.3c-43.9,1.9-88,2.9-132.3,3c-44.3-0.1-88.4-1.1-132.3-3
		c-44.6-1.9-88.7-4.7-132.3-8.3c-34.9-2.9-62.4-14.9-82.4-34.9c-20.4-20.4-32.8-48.9-37.2-84.3c-6.3-50.6-9.4-101-9.4-151.4
		c0-50.4,3.1-100.8,9.4-151.4c4.4-35.4,16.7-63.9,37.2-84.3c20-20,47.5-32.1,82.4-34.9c43.7-3.6,87.8-6.4,132.3-8.3
		C3106,112.5,3150.1,111.4,3194.4,111.3L3194.4,111.3z M3325.7,136.5c-44-1.9-87.7-2.9-131.3-3c-43.6,0.1-87.4,1.1-131.4,3
		c-43.3,1.9-87.1,4.7-131.4,8.3c-29.5,2.4-52.3,12.2-68.6,28.5c-16.8,16.8-27.1,40.9-30.8,71.3c-6.2,49.6-9.2,99.2-9.2,148.7
		c0,49.5,3.1,99.1,9.2,148.7c3.7,30.4,14,54.5,30.8,71.3c16.3,16.3,39.1,26.1,68.6,28.5c44.3,3.6,88.1,6.5,131.4,8.3
		c44,1.9,87.8,2.9,131.4,3c43.6-0.1,87.4-1.1,131.3-3c43.3-1.9,87.2-4.7,131.4-8.3c29.5-2.4,52.3-12.2,68.6-28.5
		c16.8-16.8,27.1-40.9,30.8-71.3c6.1-49.6,9.2-99.1,9.2-148.7c0-49.5-3.1-99.1-9.2-148.7c-3.8-30.4-14-54.5-30.8-71.3
		c-16.3-16.3-39.1-26.1-68.6-28.5C3412.9,141.2,3369,138.4,3325.7,136.5L3325.7,136.5z"/>
	<path d="M3333.9,402.9l-257.3,148.5V235.2l273.8,158.1L3333.9,402.9z M3098.8,513l207.4-119.7l-207.4-119.7V513z"/>
	<path d="M2080.5,393.3V229.8c0-9.2,2.8-17.5,7.4-24.4c4.1-6,9.6-10.9,15.9-14.2c6.3-3.3,13.4-5.2,20.6-5.2c8,0,16.2,2.2,23.6,7.1
		l281.2,162.3c7,4.1,12.3,9.6,15.9,15.9c3.9,6.7,5.8,14.3,5.8,21.9c0,7.5-1.9,15.1-5.8,21.8c-3.6,6.3-8.9,11.9-15.9,15.9L2148,593.4
		c-7.5,4.9-15.6,7.1-23.6,7.1c-7.2,0-14.3-1.8-20.6-5.2c-6.3-3.3-11.8-8.1-15.9-14.2c-4.6-6.9-7.4-15.2-7.4-24.4V393.3z
		 M2102.7,229.8v327c0,4.7,1.3,8.8,3.5,12c2,2.9,4.7,5.3,7.9,7c3.1,1.6,6.7,2.6,10.3,2.6c4.1,0,8.2-1.2,11.9-3.7l281.8-162.8
		c3.5-2,6.2-4.7,7.9-7.8c1.9-3.3,2.8-7.1,2.8-10.8c0-3.8-0.9-7.5-2.8-10.9c-1.7-3-4.4-5.7-7.9-7.8l-281.8-162.8
		c-3.7-2.5-7.8-3.6-11.9-3.6c-3.6,0-7.2,0.9-10.3,2.5c-3.1,1.7-5.9,4.1-7.9,7C2104,221.1,2102.7,225.1,2102.7,229.8L2102.7,229.8z"
		/>
	<path d="M2246.5-0.3c44.4,0.1,88.5,1.6,132.5,4.3c44.3,2.7,88.4,6.7,132.5,11.8c35.5,4.1,63.2,21.1,83.3,49.4
		c19.8,28,31.8,67,36,115.3c6.2,71.1,9.4,142,9.4,212.8c0,70.8-3.1,141.7-9.4,212.8c-4.2,48.3-16.2,87.3-36,115.3
		c-20,28.3-47.8,45.3-83.3,49.4c-44,5.1-88.2,9.1-132.5,11.8c-43.9,2.7-88.1,4.1-132.5,4.3c-44.4-0.1-88.6-1.6-132.5-4.3
		c-44.3-2.7-88.5-6.7-132.5-11.8c-35.5-4.1-63.2-21.1-83.3-49.4c-19.8-28-31.8-66.9-36.1-115.3c-6.2-71.1-9.4-142-9.4-212.8
		c0-70.8,3.1-141.7,9.4-212.8c4.3-48.3,16.2-87.3,36.1-115.3c20-28.3,47.8-45.3,83.3-49.4c44-5.1,88.2-9.1,132.5-11.8
		C2157.9,1.3,2202.1-0.1,2246.5-0.3L2246.5-0.3z M2377.6,26.1c-44-2.7-87.7-4.1-131.2-4.3c-43.5,0.1-87.2,1.6-131.2,4.3
		c-43.6,2.7-87.3,6.6-131.2,11.7c-28.9,3.4-51.5,17.2-67.7,40.1c-17.4,24.6-28.1,59.9-32,104.4c-6.2,70.4-9.2,140.6-9.2,210.9
		c0,70.2,3.1,140.5,9.2,210.9c3.9,44.5,14.5,79.8,32,104.4c16.3,23,38.8,36.8,67.7,40.1c43.9,5.1,87.7,9.1,131.2,11.7
		c44,2.7,87.7,4.1,131.2,4.3c43.5-0.1,87.2-1.6,131.2-4.3c43.6-2.7,87.4-6.6,131.2-11.7c28.9-3.3,51.5-17.2,67.7-40.1
		c17.4-24.6,28.1-59.9,32-104.4c6.2-70.4,9.3-140.6,9.3-210.9c0-70.3-3.1-140.5-9.3-210.9c-3.9-44.5-14.5-79.8-32-104.4
		c-16.3-23-38.8-36.8-67.7-40.1C2465,32.7,2421.2,28.8,2377.6,26.1L2377.6,26.1z"/>
	<path class="st0" d="M0,393.6V74.8c0-15.9,4.8-30,12.7-41.7c7-10.3,16.4-18.6,27.2-24.3C50.7,3.1,62.8,0,75.1,0
		c13.9,0,28.2,4,41.1,12.6L664.3,329c12,6.9,21.1,16.4,27.3,27.2c6.6,11.5,9.9,24.5,9.9,37.4c0,12.9-3.2,25.9-9.9,37.4
		c-6.2,10.7-15.2,20.2-27.2,27.2L116.2,774.6c-13,8.7-27.2,12.6-41.1,12.6c-12.3,0-24.5-3.1-35.3-8.8c-10.7-5.6-20.2-13.9-27.2-24.3
		C4.8,742.5,0,728.3,0,712.4V393.6z"/>
	<path class="st1" d="M1298.7,0c44.4,0.1,88.6,1.6,132.5,4.3c44.3,2.7,88.4,6.7,132.5,11.8c35.5,4.1,63.2,21.1,83.3,49.4
		c19.8,28,31.8,66.9,36,115.3c6.2,71.1,9.4,142,9.4,212.8c0,70.8-3.1,141.7-9.4,212.8c-4.2,48.3-16.2,87.3-36,115.3
		c-20.1,28.3-47.8,45.3-83.3,49.4c-44,5.1-88.2,9.1-132.5,11.8c-43.9,2.7-88.1,4.2-132.5,4.3c-44.4-0.1-88.5-1.6-132.5-4.3
		c-44.3-2.7-88.4-6.7-132.5-11.8c-35.5-4.1-63.2-21.1-83.3-49.4c-19.8-28-31.8-66.9-36-115.3c-6.2-71.1-9.4-142-9.4-212.8
		c0-70.8,3.1-141.7,9.4-212.8c4.2-48.3,16.2-87.3,36-115.3c20.1-28.3,47.8-45.3,83.3-49.4c44-5.1,88.2-9.1,132.5-11.8
		C1210.1,1.6,1254.3,0.1,1298.7,0L1298.7,0z"/>
	<path class="st2" d="M1143.8,393.6V230.1c0-26.4,29.6-41.5,50.9-27l281.2,162.4c10.9,6.3,16.2,17.3,16.2,28.2
		c0,10.9-5.3,21.9-16.2,28.2l-281.2,162.4c-21.3,14.5-50.9-0.6-50.9-27V393.6z"/>
</g>
</svg>
