<?xml version="1.0" encoding="UTF-8"?><svg id="Layer_2" xmlns="http://www.w3.org/2000/svg" viewBox="0 0 482.55 520.32"><defs><style>.cls-1{fill:#221f20;fill-rule:evenodd;}</style></defs><g id="Layer_1-2"><path class="cls-1" d="M411.9,449.66c43.65-43.65,70.66-103.98,70.66-170.6h0c-.12-5.44-2.4-10.32-6-13.84-3.6-3.52-8.56-5.72-14-5.72s-10.4,2.2-14,5.72c-3.6,3.52-5.88,8.4-6,13.84h0c0,55.57-22.52,105.86-58.97,142.31-36.41,36.41-86.7,58.93-142.27,58.93s-105.9-22.53-142.31-58.93c-36.41-36.45-58.93-86.74-58.93-142.31,0-33.45,8.12-64.98,22.56-92.7,14.96-28.81,36.69-53.53,63.1-72.06l.04-.04,4.32-2.96h0c14.36-9.52,30.01-17.28,46.61-22.89,15.6-5.28,32.05-8.72,49.09-10V38.29c-62.85,4-119.15,32.01-159.8,75.02C25.09,156.51,0,214.85,0,279.06s27.01,126.95,70.7,170.6c43.65,43.65,103.94,70.66,170.6,70.66s126.95-27.01,170.6-70.66h0Z"/><path class="cls-1" d="M216.17,52.81V4.72c.12-1.6,1-3.04,2.36-3.92,1.6-1,3.64-1.08,5.28-.12l75.14,47.37h0l.6,.4c1.4,1,2.2,2.64,2.2,4.36s-.8,3.32-2.2,4.32l-.6,.4h0l-75.14,47.41c-1.64,.92-3.68,.88-5.28-.12-1.36-.88-2.24-2.32-2.36-3.92V52.81Z"/><path class="cls-1" d="M149.11,193.16h0c4.8-4.84,12.68-4.84,17.48,0l80.42,80.38c4.8,4.8,4.8,12.68,0,17.52h0c-4.84,4.8-12.72,4.8-17.52,0l-80.38-80.42c-4.84-4.8-4.84-12.68,0-17.48h0Z"/><path class="cls-1" d="M412.13,108.38h0c4.84,4.8,4.84,12.68,0,17.52l-165.16,165.16c-4.8,4.8-12.68,4.8-17.49,0h0c-4.84-4.84-4.84-12.72,0-17.52L394.65,108.38c4.8-4.8,12.68-4.8,17.48,0h0Z"/><path class="cls-1" d="M247.3,104.78v34.53c0,3.32-2.72,6-6,6h0c-3.32,0-6-2.68-6-6v-34.53c0-3.28,2.68-6,6-6h0c3.28,0,6,2.72,6,6h0Z"/><path class="cls-1" d="M66.82,273.26h34.53c3.32,0,6,2.68,6,6h0c0,3.28-2.68,6-6,6h-34.53c-3.28,0-6-2.72-6-6h0c0-3.32,2.72-6,6-6h0Z"/><path class="cls-1" d="M235.29,453.7v-34.53c0-3.28,2.68-6,6-6h0c3.28,0,6,2.72,6,6v34.53c0,3.32-2.72,6-6,6h0c-3.32,0-6-2.68-6-6h0Z"/><path class="cls-1" d="M415.74,285.22h-34.53c-3.28,0-6-2.68-6-5.96h0c0-3.32,2.72-6,6-6h34.53c3.32,0,6,2.68,6,6h0c0,3.28-2.68,5.96-6,5.96h0Z"/><path class="cls-1" d="M159.24,125.15l9.16,15.88c1.68,2.88,.68,6.56-2.16,8.2h0c-2.88,1.64-6.56,.68-8.2-2.2l-9.16-15.88c-1.68-2.84-.68-6.52,2.16-8.2h0c2.88-1.64,6.56-.64,8.2,2.2h0Z"/><path class="cls-1" d="M93.18,186.84l15.88,9.16c2.88,1.64,3.84,5.32,2.2,8.2h0c-1.64,2.84-5.32,3.84-8.2,2.16l-15.88-9.16c-2.84-1.64-3.84-5.32-2.2-8.2h0c1.68-2.84,5.36-3.84,8.2-2.16h0Z"/><path class="cls-1" d="M87.18,361.28l15.88-9.16c2.88-1.64,6.56-.68,8.2,2.2h0c1.64,2.84,.68,6.52-2.2,8.2l-15.88,9.16c-2.84,1.64-6.52,.64-8.2-2.2h0c-1.64-2.84-.64-6.56,2.2-8.2h0Z"/><path class="cls-1" d="M148.88,427.34l9.16-15.88c1.64-2.84,5.32-3.84,8.2-2.2h0c2.84,1.64,3.84,5.36,2.16,8.2l-9.16,15.88c-1.64,2.84-5.32,3.84-8.2,2.2h0c-2.84-1.64-3.84-5.32-2.16-8.2h0Z"/><path class="cls-1" d="M323.31,433.34l-9.16-15.88c-1.64-2.84-.68-6.56,2.2-8.2h0c2.84-1.64,6.52-.64,8.2,2.2l9.16,15.88c1.64,2.88,.64,6.56-2.2,8.2h0c-2.84,1.64-6.56,.64-8.2-2.2h0Z"/><path class="cls-1" d="M389.37,371.68l-15.88-9.2c-2.84-1.64-3.84-5.32-2.2-8.16h0c1.64-2.88,5.36-3.84,8.2-2.2l15.88,9.16c2.84,1.64,3.84,5.36,2.2,8.2h0c-1.64,2.84-5.32,3.84-8.2,2.2h0Z"/><path class="cls-1" d="M395.37,197.2l-15.88,9.16c-2.84,1.68-6.56,.68-8.2-2.2h0c-1.64-2.84-.64-6.52,2.2-8.16l15.88-9.16c2.88-1.68,6.56-.68,8.2,2.16h0c1.64,2.88,.64,6.56-2.2,8.2h0Z"/><path class="cls-1" d="M333.72,131.15l-9.16,15.88c-1.68,2.88-5.36,3.84-8.2,2.2h0c-2.88-1.64-3.84-5.32-2.2-8.2l9.16-15.88c1.64-2.84,5.36-3.84,8.2-2.2h0c2.84,1.68,3.84,5.36,2.2,8.2h0Z"/></g></svg>