<?xml version="1.0" encoding="UTF-8"?><svg id="Layer_2" xmlns="http://www.w3.org/2000/svg" viewBox="0 0 153.03 226"><defs><style>.cls-1{fill:#deae1b;}.cls-2{fill:#3398db;}</style></defs><g id="Layer_1-2"><path class="cls-1" d="M128.07,70.95c0,4.23-3.43,7.66-7.66,7.66H32.62c-4.23,0-7.66-3.43-7.66-7.66V34.73c0-4.23,3.43-7.67,7.66-7.67H120.41c4.23,0,7.66,3.43,7.66,7.67v36.22h0Zm0,45.2c0,2.61-2.12,4.73-4.73,4.73h-12.9c-2.61,0-4.73-2.12-4.73-4.73v-12.9c0-2.61,2.12-4.73,4.73-4.73h12.9c2.61,0,4.73,2.12,4.73,4.73v12.9h0Zm0,75.53c0,2.61-2.12,4.73-4.73,4.73h-12.9c-2.61,0-4.73-2.12-4.73-4.73v-50.66c0-2.61,2.12-4.73,4.73-4.73h12.9c2.61,0,4.73,2.12,4.73,4.73v50.66h0Zm-40.38-75.53c0,2.61-2.12,4.73-4.73,4.73h-12.9c-2.61,0-4.73-2.12-4.73-4.73v-12.9c0-2.61,2.12-4.73,4.73-4.73h12.9c2.61,0,4.73,2.12,4.73,4.73v12.9h0Zm0,37.76c0,2.61-2.12,4.73-4.73,4.73h-12.9c-2.61,0-4.73-2.12-4.73-4.73v-12.9c0-2.61,2.12-4.73,4.73-4.73h12.9c2.61,0,4.73,2.12,4.73,4.73v12.9h0Zm0,37.76c0,2.61-2.12,4.73-4.73,4.73h-12.9c-2.61,0-4.73-2.12-4.73-4.73v-12.9c0-2.61,2.12-4.73,4.73-4.73h12.9c2.61,0,4.73,2.12,4.73,4.73v12.9h0ZM47.31,116.16c0,2.61-2.12,4.73-4.73,4.73h-12.9c-2.61,0-4.73-2.12-4.73-4.73v-12.9c0-2.61,2.12-4.73,4.73-4.73h12.9c2.61,0,4.73,2.12,4.73,4.73v12.9h0Zm0,37.76c0,2.61-2.12,4.73-4.73,4.73h-12.9c-2.61,0-4.73-2.12-4.73-4.73v-12.9c0-2.61,2.12-4.73,4.73-4.73h12.9c2.61,0,4.73,2.12,4.73,4.73v12.9h0Zm0,37.76c0,2.61-2.12,4.73-4.73,4.73h-12.9c-2.61,0-4.73-2.12-4.73-4.73v-12.9c0-2.61,2.12-4.73,4.73-4.73h12.9c2.61,0,4.73,2.12,4.73,4.73v12.9h0ZM153.03,14.29c0-7.89-6.4-14.29-14.28-14.29H14.28C6.4,0,0,6.4,0,14.29V211.72c0,7.89,6.4,14.28,14.28,14.28h124.46c7.89,0,14.28-6.4,14.28-14.28V14.29h0Z"/><path class="cls-2" d="M115.28,34.79H37.75c-2.8,0-5.07,2.27-5.07,5.07v25.97c0,2.8,2.27,5.07,5.07,5.07H115.28c2.8,0,5.07-2.27,5.07-5.07v-25.97c0-2.8-2.27-5.07-5.07-5.07h0Z"/></g></svg>