<?xml version="1.0" encoding="UTF-8"?><svg id="Layer_2" xmlns="http://www.w3.org/2000/svg" xmlns:xlink="http://www.w3.org/1999/xlink" viewBox="0 0 282.98 340"><defs><style>.cls-1{fill:none;}.cls-2{clip-path:url(#clippath);}.cls-3{fill:#272f3a;}</style><clipPath id="clippath"><rect class="cls-1" width="282.98" height="340"/></clipPath></defs><g id="Layer_1-2"><g id="NewGroup11-0"><g><g class="cls-2"><path class="cls-3" d="M170.04,125.72c0-15.68-12.71-28.39-28.39-28.39s-28.39,12.71-28.39,28.39,12.71,28.39,28.39,28.39,28.39-12.71,28.39-28.39h0Z"/><path class="cls-3" d="M205.43,140.37c4.05-4.57,3.62-11.55-.94-15.59h0c-4.57-4.05-11.55-3.62-15.59,.94l-31.31,43.5h-31.62l-31.88-43.5c-4.05-4.57-11.03-4.99-15.59-.94h0c-4.57,4.05-4.99,11.03-.94,15.59l30.85,42.72-5.27,145.43c-.24,6.1,4.5,11.23,10.6,11.47h0c6.1,.24,11.23-4.5,11.47-10.6l2.97-67.05h24.88l2.97,67.05c.24,6.1,5.38,10.84,11.47,10.6h0c6.1-.24,10.84-5.38,10.6-11.47l-3.82-145.08,31.15-43.06h0Z"/><path class="cls-3" d="M276.35,134.85h-44.51c-3.67,0-6.64,2.97-6.64,6.64s2.97,6.64,6.64,6.64h44.51c3.67,0,6.64-2.97,6.64-6.64s-2.97-6.64-6.64-6.64h0Z"/><path class="cls-3" d="M51.15,134.85H6.64C2.97,134.85,0,137.83,0,141.5s2.97,6.64,6.64,6.64H51.15c3.67,0,6.64-2.97,6.64-6.64s-2.97-6.64-6.64-6.64h0Z"/></g><path class="cls-3" d="M141.5,0c-3.67,0-6.64,2.97-6.64,6.64V51.15c0,3.67,2.97,6.64,6.64,6.64s6.64-2.97,6.64-6.64V6.64c0-3.67-2.97-6.64-6.64-6.64h0Z"/><path class="cls-3" d="M50.84,41.44c-2.59-2.59-6.8-2.59-9.39,0-2.59,2.59-2.59,6.8,0,9.39l31.47,31.47c2.59,2.59,6.8,2.59,9.39,0s2.59-6.8,0-9.39l-31.47-31.47h0Z"/><path class="cls-3" d="M241.55,41.44c-2.59-2.59-6.8-2.59-9.39,0l-31.47,31.47c-2.59,2.59-2.59,6.8,0,9.39,2.59,2.59,6.8,2.59,9.39,0l31.47-31.47c2.59-2.59,2.59-6.8,0-9.39h0Z"/><path class="cls-3" d="M267.31,92.52c3.35-1.5,4.85-5.43,3.35-8.78-1.5-3.35-5.43-4.85-8.78-3.35l-40.63,18.17c-3.35,1.5-4.85,5.43-3.35,8.78,1.5,3.35,5.43,4.85,8.78,3.35l40.63-18.17h0Z"/><path class="cls-3" d="M92.52,15.68c-1.5-3.35-5.43-4.85-8.78-3.35-3.35,1.5-4.85,5.43-3.35,8.78l18.17,40.63c1.5,3.35,5.43,4.85,8.78,3.35,3.35-1.5,4.85-5.43,3.35-8.78L92.52,15.68h0Z"/><path class="cls-3" d="M59.47,103.05l-41.58-15.88c-3.43-1.31-7.27,.41-8.58,3.83-1.31,3.43,.41,7.27,3.83,8.58l41.58,15.88c3.43,1.31,7.27-.41,8.58-3.83,1.31-3.43-.41-7.27-3.83-8.58h0Z"/><path class="cls-3" d="M191.99,9.32c-3.43-1.31-7.27,.41-8.58,3.83l-15.89,41.58c-1.31,3.43,.41,7.27,3.83,8.58,3.43,1.31,7.27-.41,8.58-3.83l15.88-41.58c1.31-3.43-.41-7.27-3.83-8.58h0Z"/></g></g></g></svg>