<?xml version="1.0" encoding="UTF-8"?><svg id="Layer_2" xmlns="http://www.w3.org/2000/svg" viewBox="0 0 353.97 335.28"><defs><style>.cls-1{fill:#233642;}</style></defs><g id="Layer_1-2"><g><g><path class="cls-1" d="M226.49,176.41h46.72l-.22-8.21c-.65-24.68-10.6-47.85-28.02-65.27-18.08-18.08-42.16-28.04-67.8-28.04-19.86,0-39.25,6.17-55.33,17.51l-26.25-26.25c23.19-18.09,51.84-27.96,81.57-27.96,35.47,0,68.77,13.77,93.78,38.78,24.41,24.41,38.18,56.94,38.76,91.58l.13,7.87h44.13l-64.69,62.79-62.79-62.79Z"/><path class="cls-1" d="M176.8,297.29c-35.47,0-68.77-13.77-93.77-38.78-24.41-24.42-38.18-56.94-38.75-91.58l-.13-7.87H0l64.69-62.79,62.79,62.79h-46.72l.22,8.21c.65,24.68,10.6,47.85,28.02,65.27,18.08,18.08,42.16,28.04,67.8,28.04,19.86,0,39.25-6.17,55.33-17.51l26.25,26.25c-23.19,18.09-51.84,27.96-81.57,27.96Z"/></g><path class="cls-1" d="M166.72,335.28c-3.51-.17-7.07-.46-10.57-.85-3.46-.39-6.94-.88-10.35-1.48l2.06-11.82c3.17,.55,6.41,1.02,9.62,1.38,3.26,.36,6.56,.63,9.82,.79l-.59,11.99Zm21.06-.29l-.92-11.96c6.48-.5,12.99-1.41,19.36-2.72l2.42,11.75c-6.86,1.41-13.88,2.4-20.86,2.93Zm-62.45-6.95c-6.71-2.06-13.34-4.57-19.72-7.46l4.95-10.93c5.92,2.68,12.08,5.01,18.3,6.92l-3.53,11.47Zm103.63-1.52l-3.88-11.35c6.15-2.1,12.22-4.62,18.06-7.47l5.28,10.78c-6.29,3.08-12.83,5.79-19.45,8.05Zm-141.97-15.81c-5.96-3.67-11.75-7.75-17.22-12.14l7.52-9.35c5.07,4.08,10.45,7.87,15.98,11.27l-6.29,10.22Zm179.71-2.66l-6.58-10.03c5.44-3.57,10.7-7.51,15.65-11.73l7.78,9.14c-5.33,4.54-11,8.79-16.85,12.62Zm-212.48-23.69c-4.86-5.03-9.46-10.42-13.66-16.03l9.6-7.2c3.9,5.2,8.17,10.21,12.69,14.89l-8.63,8.34Zm244.48-3.56l-8.86-8.09c4.39-4.81,8.52-9.93,12.26-15.24l9.8,6.92c-4.03,5.71-8.48,11.24-13.21,16.41ZM29.01,250.73c-3.47-6.08-6.59-12.44-9.26-18.9l11.08-4.6c2.49,6,5.38,11.9,8.6,17.55l-10.42,5.95Zm293.94-4.3l-10.6-5.63c3.05-5.74,5.77-11.74,8.07-17.82l11.22,4.25c-2.48,6.55-5.41,13.01-8.69,19.2ZM12.93,211.91c-1.85-6.76-3.28-13.7-4.26-20.63l11.88-1.68c.91,6.43,2.24,12.87,3.95,19.14l-11.58,3.16Zm317.57-46.69c-.1-6.5-.61-13.06-1.52-19.48l11.88-1.69c.98,6.92,1.53,13.99,1.64,20.99l-12,.18ZM23.36,131.31l-11.67-2.79c1.63-6.82,3.71-13.59,6.18-20.13l11.23,4.24c-2.29,6.07-4.22,12.36-5.73,18.69Zm301.66-4.71c-1.71-6.26-3.85-12.47-6.34-18.48l11.08-4.6c2.69,6.47,4.99,13.17,6.83,19.91l-11.57,3.17ZM37.14,94.8l-10.6-5.62c3.28-6.18,6.99-12.22,11.03-17.96l9.81,6.91c-3.75,5.32-7.19,10.93-10.24,16.66Zm272.91-4.22c-3.22-5.64-6.84-11.14-10.74-16.34l9.59-7.21c4.21,5.6,8.1,11.52,11.57,17.59l-10.42,5.95ZM59.63,62.88l-8.87-8.09c4.71-5.17,9.81-10.09,15.14-14.64l7.79,9.13c-4.95,4.22-9.68,8.8-14.06,13.6Zm226.98-3.52c-4.52-4.68-9.39-9.11-14.46-13.18l7.51-9.36c5.46,4.38,10.69,9.15,15.57,14.19l-8.62,8.35ZM89.33,37.55l-6.59-10.03c5.85-3.85,12-7.36,18.28-10.44l5.29,10.77c-5.83,2.86-11.54,6.12-16.98,9.69Zm166.84-2.62c-5.54-3.4-11.36-6.48-17.28-9.16l4.94-10.94c6.38,2.88,12.65,6.2,18.62,9.87l-6.28,10.23ZM124.35,20.36l-3.89-11.35c6.63-2.27,13.46-4.14,20.32-5.56l2.43,11.75c-6.36,1.31-12.7,3.05-18.85,5.16Zm96.22-1.49c-6.2-1.9-12.59-3.43-19.02-4.54l2.05-11.82c6.91,1.2,13.81,2.85,20.48,4.89l-3.52,11.47Zm-58.02-6.41l-.93-11.96c6.96-.54,14.05-.64,21.06-.31l-.58,11.99c-6.51-.31-13.1-.22-19.55,.28Z"/><circle class="cls-1" cx="175.59" cy="167.64" r="25.98"/></g></g></svg>