<?xml version="1.0" encoding="UTF-8"?><svg id="Layer_2" xmlns="http://www.w3.org/2000/svg" viewBox="0 0 971.02 971.03"><defs><style>.cls-1{fill:#383838;}</style></defs><g id="robot"><path class="cls-1" d="M932.86,296.52c-24.46-57.82-59.46-109.74-104.04-154.31-44.57-44.58-96.49-79.58-154.3-104.03C614.63,12.85,551.03,0,485.51,0s-129.11,12.85-189,38.18c-57.82,24.45-109.74,59.45-154.31,104.03-44.57,44.58-79.57,96.5-104.03,154.31C12.84,356.41,0,419.99,0,485.52s12.84,129.11,38.17,188.99c24.46,57.82,59.46,109.74,104.03,154.31,44.58,44.58,96.5,79.58,154.31,104.03,59.89,25.33,123.48,38.18,189,38.18s129.11-12.85,189-38.18c57.82-24.45,109.74-59.45,154.3-104.03,44.58-44.58,79.58-96.5,104.04-154.31,25.33-59.89,38.17-123.47,38.17-188.99s-12.84-129.11-38.17-189ZM485.51,878.27c-121.29,0-229.91-55.27-302.01-141.93l118.38-76.66-50.44-77.85-118.47,76.71c-25.74-52.23-40.22-110.98-40.22-173.03,0-216.57,176.2-392.76,392.76-392.76,121.29,0,229.9,55.27,302.01,141.93l-86.21,55.82v110.51l136.74-88.55c25.74,52.23,40.22,110.98,40.22,173.04,0,216.56-176.19,392.75-392.76,392.75Z"/><path class="cls-1" d="M658.12,326.06v280.34c0,105.14-85.67,139.69-149.78,139.69-5.2,0-10.25-.23-15.11-.67-85.66,0-134.59-75.62-134.59-75.62l-24.15-37.28-46.3-71.45-21.41-33.04c-6.62-12.42-6.61-22.84,1.47-31.65l.48-.52c6.89-6.28,14.03-9,21.18-9,16.32,0,32.73,14.12,46.46,32.36l5.97,6.79,14.78,16.83c1.86,2.12,4.27,3.05,6.65,3.05,4.58,0,9.01-3.52,9.01-8.95v-250.22c0-14.44,11.71-26.16,26.16-26.16s26.16,11.71,26.16,26.16v181.09c0,1.46,.24,2.85,.69,4.16,1.72,4.96,6.44,8.53,11.98,8.53,7.01,0,12.68-5.67,12.68-12.68V247.39c0-14.44,11.71-26.16,26.16-26.16s26.16,11.71,26.16,26.16v220.42c0,7.01,5.68,12.68,12.68,12.68s12.68-5.67,12.68-12.68v-181.09c0-14.44,11.71-26.16,26.16-26.16s26.16,11.71,26.16,26.16v181.09c0,1.71,.34,3.34,.95,4.82,1.89,4.62,6.43,7.86,11.73,7.86,7,0,12.68-5.67,12.68-12.68v-141.75c0-14.44,11.71-26.16,26.16-26.16,12.98,0,23.75,9.46,25.8,21.85,.23,1.4,.36,2.84,.36,4.3Z"/></g></svg>