<?xml version="1.0" encoding="UTF-8"?><svg id="Layer_2" xmlns="http://www.w3.org/2000/svg" viewBox="0 0 126.02 125.6"><defs><style>.cls-1{fill:#2b77c0;}.cls-2{fill:#3b4551;}</style></defs><g id="Layer_1-2"><g><path class="cls-2" d="M116.56,88.54c6.34-9.54,9.46-20.52,9.46-31.48h-20.41c0,8.86-3.18,17.75-9.66,24.79-13.69,14.91-36.89,15.91-51.8,2.21-14.92-13.7-15.9-36.89-2.21-51.8,7.24-7.88,17.09-11.87,27-11.87V0c-11.07-.01-22.11,3.21-31.62,9.54L28.54,3.16c-1.43-1.01-3.42-.8-4.62,.5L14.8,13.59c-1.2,1.32-1.24,3.29-.12,4.66l6.53,7.53c-6.79,10.36-9.86,22.37-9.24,34.18l-9.9,4.26c-1.62,.74-2.43,2.54-1.92,4.22l3.87,12.94c.5,1.68,2.18,2.75,3.93,2.46l9.71-1.72c3.05,6.21,7.26,12.01,12.7,16.99,3.95,3.63,8.29,6.58,12.86,8.88l-1.24,10.66c-.17,1.76,.97,3.38,2.7,3.78l13.15,3.08c1.71,.41,3.49-.54,4.11-2.2l3.33-9.32c12.2,.8,24.6-2.32,35.14-9.28l8.66,6.4c1.43,1.04,3.41,.83,4.61-.46l9.21-9.87c1.2-1.29,1.28-3.28,.17-4.65l-6.49-7.59Z"/><path class="cls-1" d="M61.1,49.84c-3.98,4.34-3.7,11.09,.64,15.08,4.34,3.99,11.09,3.7,15.08-.64,1.02-1.11,1.76-2.39,2.22-3.73l33.56-15.28c1.45-.66,2.23-2.27,1.84-3.82-.45-1.77-2.25-2.85-4.02-2.4l-35.77,9c-4.28-2.71-10.01-2.07-13.55,1.8Z"/><path class="cls-2" d="M113.67,50.48c-.03-.2-.07-.4-.1-.6l-1.31,.6h1.41Z"/><path class="cls-1" d="M99.65,37l8.67-2.18c-2.27-4.03-5.2-7.78-8.79-11.07-6.94-6.36-15.33-10.15-24-11.4v8.63c6.58,1.2,12.92,4.2,18.21,9.07,2.3,2.12,4.27,4.45,5.91,6.95Z"/></g></g></svg>