<?xml version="1.0" encoding="UTF-8"?><svg id="Layer_2" xmlns="http://www.w3.org/2000/svg" viewBox="0 0 1139.96 1139.97"><defs><style>.cls-1{fill:#353f45;}</style></defs><g id="Layer_1-2"><g><path class="cls-1" d="M570.09,0C255.74,0,0,255.65,0,569.88s255.74,570.09,570.09,570.09,569.88-255.74,569.88-570.09S884.32,0,570.09,0Zm0,1071.22c-276.45,0-501.34-224.9-501.34-501.34S293.65,68.76,570.1,68.76s501.11,224.8,501.11,501.11-224.8,501.34-501.11,501.34Z"/><path class="cls-1" d="M768.57,323.58l-101.35,117.75c-12.04,13.99-29.57,22.03-48.03,22.03h-84.67c-18.46,0-36-8.04-48.05-22.03l-101.35-117.75c-15.59-18.12-42.92-20.19-61.04-4.56-18.11,15.6-20.17,42.92-4.56,61.04l130.83,151.99c5.62,6.54,8.71,14.89,8.71,23.52v123.5c0,2.13-.19,4.26-.57,6.36l-8.14,45.44c-.89,4.93-6.33,7.55-10.73,5.17l-60.41-32.66c-23.15-12.49-52.61-1.76-61.6,24.19-7.05,20.38,3.54,42.85,22.53,53.1l119.88,64.79c12.23,6.58,26.84,6.95,39.36,.92,12.52-6.03,21.37-17.7,23.82-31.36l15.33-85.46c1.49-8.28,8.69-14.31,17.11-14.31h47.82c7.35,0,13.93,4.64,16.38,11.58l18.6,52.57c1.98,5.57,.11,11.78-4.62,15.34l-75,56.56c-17.04,12.86-24.13,36.34-14.38,55.34,7.99,15.54,23.26,23.82,38.73,23.82,9.07,0,18.23-2.85,26.03-8.72l110-82.96c15.1-11.37,21.05-31.21,14.74-49.02l-37.26-105.24c-1.38-3.87-2.07-7.94-2.07-12.04v-116.92c0-8.63,3.09-16.97,8.73-23.52l130.83-151.99c15.59-18.12,13.55-45.44-4.58-61.04-18.12-15.62-45.45-13.55-61.04,4.56Z"/><path class="cls-1" d="M576.86,423.32c58.23,0,105.42-47.2,105.42-105.43s-47.2-105.42-105.42-105.42-105.44,47.2-105.44,105.42,47.22,105.43,105.44,105.43Z"/></g></g></svg>