<?xml version="1.0" encoding="UTF-8"?><svg id="Layer_2" xmlns="http://www.w3.org/2000/svg" viewBox="0 0 218.73 315"><defs><style>.cls-1{fill:#253642;}</style></defs><g id="Layer_1-2"><g><path class="cls-1" d="M61.13,105.09c0-21.24,17.28-38.53,38.53-38.53s38.53,17.28,38.53,38.53c0,12.79-6.19,24.4-16.31,31.5v-24.33c0-11.96-9.57-21.95-21.33-22.27-5.97-.17-11.63,2.04-15.91,6.21-4.28,4.17-6.64,9.75-6.64,15.73v25c-10.34-7.08-16.86-19.01-16.86-31.84h0Zm119.51,76.26c-4.01-4.35-9.76-7.09-16.14-7.09s-12.13,2.74-16.14,7.1c-4.01-4.36-9.76-7.1-16.14-7.1-3.74,0-7.26,.94-10.34,2.59v-26.83c7.64-3.77,14.17-9.41,19.06-16.49,5.79-8.38,8.85-18.22,8.85-28.45,0-27.64-22.49-50.12-50.12-50.12s-50.12,22.49-50.12,50.12c0,10.34,3.12,20.27,9.04,28.72,4.99,7.13,11.65,12.77,19.42,16.49v61.23l-5.46-6.78c-3.68-4.56-8.91-7.42-14.74-8.05-5.83-.63-11.55,1.05-16.11,4.73-4.56,3.68-7.42,8.91-8.05,14.74-.63,5.83,1.05,11.55,4.73,16.11l27.29,33.87c.14,.24,.29,.46,.46,.68l14.65,18.65c7.19,9.15,16.52,16.67,26.98,21.76,10.46,5.09,22.14,7.77,33.78,7.77,19.71,0,38.49-7.43,52.86-20.91,14.38-13.49,22.99-31.75,24.25-51.42l.1-1.5c0-.12,.01-.25,.01-.37v-44.26c0-11.96-9.57-21.95-21.33-22.27-5.98-.17-11.63,2.04-15.91,6.21-.29,.28-.58,.58-.85,.87h0Z"/><path class="cls-1" d="M138.87,37.61c-2.77-1.61-6.32-.67-7.93,2.09-1.61,2.77-.67,6.32,2.09,7.93,20.39,11.87,33.06,33.89,33.06,57.45,0,15.95-5.73,31.37-16.15,43.41-2.09,2.42-1.83,6.09,.6,8.18,1.1,.95,2.45,1.41,3.79,1.41,1.63,0,3.24-.68,4.39-2.01,12.23-14.16,18.97-32.27,18.97-51,0-13.9-3.7-27.55-10.71-39.48-6.8-11.57-16.52-21.25-28.11-28h0Z"/><path class="cls-1" d="M46.81,158.1c1.34,0,2.69-.46,3.79-1.41,2.42-2.09,2.69-5.76,.6-8.18-10.41-12.05-16.15-27.47-16.15-43.41,0-23.57,12.67-45.58,33.06-57.45,2.77-1.61,3.7-5.16,2.09-7.93-1.61-2.77-5.16-3.7-7.93-2.09-11.59,6.75-21.31,16.43-28.11,28-7.01,11.92-10.71,25.57-10.71,39.48,0,18.73,6.74,36.84,18.97,51,1.15,1.33,2.76,2.01,4.39,2.01h0Z"/><path class="cls-1" d="M.02,91.22c-.23,3.19,2.17,5.97,5.36,6.2,.14,.01,.29,.02,.43,.02,3.01,0,5.56-2.33,5.78-5.38,1.51-20.76,10.46-40.3,25.2-55.04C58.55,15.25,90.6,6.61,120.41,14.48c3.1,.82,6.27-1.03,7.09-4.13,.82-3.1-1.03-6.27-4.13-7.09-16.36-4.32-33.66-4.35-50.04-.1-16.88,4.39-32.36,13.26-44.75,25.65C11.87,45.52,1.73,67.68,.02,91.22H.02Z"/></g></g></svg>