<?xml version="1.0" encoding="UTF-8"?><svg id="Layer_2" xmlns="http://www.w3.org/2000/svg" viewBox="0 0 1587.72 1588.89"><defs><style>.cls-1{fill:none;}.cls-2{fill:#1d1d1b;}</style></defs><g id="_ÎÓÈ_1"><g><path class="cls-1" d="M266.81,356.57c-4.36,13.94-6.64,28.07-6.64,43.17v787.08c0,78.52,63.55,141.9,142.08,141.9h787.08c78.52,0,141.72-63.38,141.72-141.9V399.74c0-15.1-1.92-29.23-6.28-43.17H266.81Z"/><g><path class="cls-1" d="M1189.32,257.85H402.24c-63.42,0-117.12,40.65-135.44,98.72H1324.76c-18.32-58.07-72.02-98.72-135.44-98.72Z"/><path class="cls-1" d="M260.17,482.01v704.81c0,78.52,63.55,141.9,142.08,141.9h787.08c78.52,0,141.72-63.38,141.72-141.9V482.01H260.17Z"/></g><g><path class="cls-1" d="M260.17,607.45v579.37c0,78.52,63.55,141.9,142.08,141.9h787.08c78.52,0,141.72-63.38,141.72-141.9V607.45H260.17Z"/><path class="cls-1" d="M1331.04,399.74c0-78.52-63.2-141.9-141.72-141.9H402.24c-78.52,0-142.08,63.38-142.08,141.9v82.27H1331.04v-82.27Z"/></g><g><path class="cls-1" d="M1331.04,399.74c0-78.52-63.2-141.9-141.72-141.9H402.24c-78.52,0-142.08,63.38-142.08,141.9v207.7H1331.04v-207.7Z"/><path class="cls-1" d="M260.17,730.56v456.26c0,78.52,63.55,141.9,142.08,141.9h787.08c78.52,0,141.72-63.38,141.72-141.9v-456.26H260.17Z"/></g><g><path class="cls-1" d="M260.17,856v330.82c0,78.52,63.55,141.9,142.08,141.9h787.08c78.52,0,141.72-63.38,141.72-141.9v-330.82H260.17Z"/><path class="cls-1" d="M1331.04,399.74c0-78.52-63.2-141.9-141.72-141.9H402.24c-78.52,0-142.08,63.38-142.08,141.9v330.82H1331.04V399.74Z"/></g><g><path class="cls-1" d="M1331.04,399.74c0-78.52-63.2-141.9-141.72-141.9H402.24c-78.52,0-142.08,63.38-142.08,141.9v456.26H1331.04V399.74Z"/><path class="cls-1" d="M260.17,979.12v207.7c0,78.52,63.55,141.9,142.08,141.9h787.08c78.52,0,141.72-63.38,141.72-141.9v-207.7H260.17Z"/></g><g><path class="cls-1" d="M260.17,1104.55v82.27c0,78.52,63.55,141.9,142.08,141.9h787.08c78.52,0,141.72-63.38,141.72-141.9v-82.27H260.17Z"/><path class="cls-1" d="M1331.04,399.74c0-78.52-63.2-141.9-141.72-141.9H402.24c-78.52,0-142.08,63.38-142.08,141.9V979.12H1331.04V399.74Z"/><rect class="cls-2" x="260.17" y="979.12" width="1070.87" height="125.44"/></g><g><path class="cls-1" d="M266.81,1229.99c18.32,58.07,72.02,98.72,135.44,98.72h787.08c63.42,0,117.12-40.65,135.44-98.72H266.81Z"/><path class="cls-1" d="M1331.04,399.74c0-78.52-63.2-141.9-141.72-141.9H402.24c-78.52,0-142.08,63.38-142.08,141.9v704.81H1331.04V399.74Z"/></g><g><path class="cls-1" d="M1324.76,1229.99c4.36-13.94,6.28-28.07,6.28-43.17V399.74c0-78.52-63.2-141.9-141.72-141.9H402.24c-78.52,0-142.08,63.38-142.08,141.9v787.08c0,15.1,2.28,29.23,6.64,43.17H1324.76Z"/><path class="cls-2" d="M402.24,1328.72h787.08c63.42,0,117.12-40.65,135.44-98.72H266.81c18.32,58.07,72.02,98.72,135.44,98.72Z"/></g><g><path class="cls-2" d="M752.35,117.41c5.17-1.3,9.49-3.4,12.96-6.01,3.46-2.62,6.05-5.94,7.76-9.83,1.71-3.89,2.57-8.47,2.57-13.66,0-4.26-.75-8.24-2.26-11.9-1.5-3.66-3.92-6.84-7.24-9.53-3.32-2.69-7.59-4.71-12.8-6.21-5.21-1.5-12.05-2.18-20.51-2.18h-15.05v61.56h15.47c7.55,0,13.92-.93,19.09-2.23Z"/><polygon class="cls-2" points="906.77 1476.22 887.57 1513.39 926.07 1513.39 906.88 1476.22 906.77 1476.22"/><polygon class="cls-2" points="610.1 61.56 609.99 61.56 590.79 99.89 629.3 99.89 610.1 61.56"/><path class="cls-2" d="M1470.36,118.04C1394.4,42.08,1293.83,0,1186.41,0H401.56C294.14,0,193.45,42.08,117.49,118.04,41.53,193.99,0,295.23,0,402.65v784.85c0,107.42,41.53,208.02,117.49,283.98,75.96,75.96,176.65,117.4,284.07,117.4h784.85c107.42,0,207.99-41.44,283.95-117.4,75.96-75.96,117.37-176.56,117.37-283.98V402.65c0-107.42-41.41-208.66-117.37-284.61Zm-433.17-67.91c0-2.18,1.11-4.12,3.04-5.21,1.92-1.09,4.44-1.94,7.23-1.94h14.79c2.66,0,4.89,.46,6.71,.76,1.82,.3,3.44,.95,4.88,1.65,1.43,.7,2.78,1.74,4.04,2.96,1.26,1.23,2.55,2.78,3.88,4.59l26.44,32.89c1.54,1.99,3.06,3.96,4.56,5.88,1.5,1.92,2.95,3.85,4.35,5.77,1.4,1.92,2.76,4.05,4.09,5.9,1.33,1.85,2.62,3.47,3.88,5.79h.1c-.21-4.65,.08-6.86-.03-10.38-.1-3.52,.29-7.11,.29-10.31V46.31c0-.46-.24-.88,.18-1.25,.42-.37,.89-.7,1.87-.97,.98-.28,2.16-.48,3.77-.59,1.61-.11,3.62-.17,6.13-.17,2.38,0,4.34,.06,5.95,.17,1.61,.12,2.83,.31,3.71,.59,.87,.28,2.27,.6,2.62,.97,.35,.37,1.31,.79,1.31,1.25V127.13c0,1.07-1.07,2.02-1.63,2.85-.56,.83-1.71,1.53-2.65,2.09-.94,.55-2.26,.33-3.56,.59-1.29,.25-2.8-.25-4.13-.25h-11.75c-2.45,0-4.56,.47-6.35,.14-1.78-.32-3.43-.6-4.93-1.46-1.51-.86-2.96-1.86-4.35-3.32-1.4-1.46-2.97-3.27-4.72-5.58l-33.78-42c-1.96-2.5-3.95-5.66-5.98-8.56-2.03-2.89-3.85-4.26-5.46-8.91h-.21c.28,4.65,.68,7.14,.82,10.45,.14,3.31,.4,7.21,.4,10.73v47.05c0,.46-.39,.88-.77,1.25-.38,.37-1.15,.68-2.09,.94-.94,.26-2.27,.45-3.88,.59-1.61,.14-3.7,.21-6.21,.21s-4.49-.07-6.1-.21c-1.61-.14-2.87-.34-3.78-.59-.91-.25-1.69-.57-2.04-.94-.35-.37-.68-.79-.68-1.25V50.13Zm-56.91-4.03c0-.46,.19-.88,.65-1.25,.45-.37,1.21-.67,2.29-.9,1.08-.23,2.49-.42,4.24-.56,1.75-.14,3.95-.21,6.6-.21s4.96,.07,6.71,.21c1.75,.14,3.15,.32,4.19,.56,1.05,.23,1.34,.53,1.8,.9,.45,.37,.22,.79,.22,1.25v84.92c0,.46,.23,.88-.22,1.25-.46,.37-.98,.67-2.03,.9-1.05,.23-2.33,.42-4.08,.56-1.75,.14-3.93,.21-6.66,.21s-4.85-.07-6.63-.21c-1.78-.14-3.19-.32-4.23-.56-1.05-.23-1.76-.53-2.22-.9-.46-.37-.64-.79-.64-1.25V46.1Zm-153.31,3.27c0-2.04,.72-3.82,2.3-4.72,1.57-.9,3.45-1.67,5.76-1.67h67.77c.63,0,1.19,.43,1.68,.66,.49,.23,.91,.79,1.26,1.37,.35,.58,.61,1.4,.79,2.3,.17,.9,.26,2.09,.26,3.48,0,1.3-.09,2.42-.26,3.32-.18,.9-.44,1.64-.79,2.2-.35,.56-.77,1.05-1.26,1.3-.49,.25-1.05,.47-1.68,.47h-46.79v20.91h39.34c.63,0,1.21,.58,1.73,.83,.52,.26,.96,.87,1.31,1.41,.35,.53,.61,1.36,.79,2.27,.17,.9,.26,2.06,.26,3.36s-.09,2.48-.26,3.36c-.18,.88-.44,1.6-.79,2.13-.35,.53-.79,1.04-1.31,1.27-.52,.23-1.1,.47-1.73,.47h-39.34v25.55h47.21c.63,0,1.21-.08,1.73,.17,.52,.25,.96,.55,1.31,1.11,.35,.55,.61,1.23,.79,2.14,.17,.9,.26,2,.26,3.34s-.09,2.45-.26,3.36c-.18,.9-.44,1.63-.79,2.18-.35,.55-.79,.4-1.31,.65-.52,.26-1.1-.18-1.73-.18h-68.19c-2.31,0-4.19,.11-5.76-.8-1.57-.9-2.3-1.81-2.3-3.85V49.36Zm-135.89,0c0-2.04,.95-3.82,2.52-4.72,1.57-.9,3.68-1.67,5.99-1.67h34.83c12.1,0,22.36,1.25,30.79,3.13,8.43,1.88,15.53,4.81,21.3,8.49s10.16,8.31,13.17,13.73c3.01,5.42,4.51,11.74,4.51,18.87,0,8.25-1.63,15.32-4.88,21.18-3.25,5.86-7.92,10.65-14,14.36-6.08,3.71-13.48,5.88-22.19,7.61-8.71,1.74-19.08,2.05-31.1,2.05h-32.42c-2.31,0-4.41,.11-5.99-.8-1.57-.9-2.52-1.81-2.52-3.85V49.36Zm-141.93,81.1c.21-.97,.73-2.27,1.57-3.89l41.86-79.78c.42-.79,.91-1.43,1.47-1.91,.56-.49,1.45-.86,2.68-1.11,1.22-.25,2.92-.42,5.09-.49,2.17-.07,5.04-.11,8.6-.11,4.13,0,7.41,.04,9.86,.11,2.45,.07,4.35,.23,5.72,.49,1.36,.25,2.34,.64,2.94,1.15,.59,.51,1.1,1.2,1.52,2.08l41.96,79.71c.84,1.67,1.36,2.99,1.57,3.96,.21,.97-.07,1.7-.84,2.19-.77,.49-2.13,.79-4.09,.9-1.96,.11-4.65,.17-8.08,.17s-6.35-.04-8.34-.11c-1.99-.07-3.51-.21-4.56-.42-1.05-.21-1.78-.5-2.2-.87-.42-.37-.77-.46-1.05-1.06l-9.13-17.67h-50.99l-8.6,17.18c-.28,.65-.65,.99-1.1,1.43-.46,.44-1.19,.69-2.2,.94-1.01,.25-2.45,.38-4.3,.47-1.85,.09-4.28,.12-7.29,.12-3.22,0-5.74-.08-7.55-.22-1.82-.14-3.08-.48-3.78-1.01-.7-.53-.94-1.29-.73-2.27ZM372.83,50.89c0-2.36,1.24-4.48,3.13-5.73,1.89-1.25,4.7-2.19,7.85-2.19h18.04c3.22,0,5.98,.49,8.29,.83,2.31,.35,4.3,1.08,5.98,1.89,1.68,.81,3.08,1.95,4.2,3.27,1.12,1.32,2.1,3.82,2.94,5.76l29.37,54.44h.42l30.42-54.26c.91-1.95,1.9-4,2.99-5.34,1.08-1.34,2.34-2.64,3.78-3.47,1.43-.83,3.13-1.84,5.09-2.19,1.96-.35,4.23-.94,6.82-.94h18.57c1.89,0,3.51,.47,4.88,.8,1.36,.32,2.48,.95,3.36,1.58,.87,.63,1.7,1.47,2.16,2.37,.45,.9,.84,2.01,.84,3.17v80.13c0,.46-.36,.88-.74,1.25-.39,.37-1.17,.67-2.18,.9-1.01,.23-2.4,.42-4.08,.56-1.68,.14-3.83,.21-6.42,.21s-4.63-.07-6.3-.21c-1.68-.14-3.01-.32-3.99-.56-.98-.23-1.23-.53-1.65-.9-.42-.37-.18-.79-.18-1.25V58.07h-1.1l-39.34,72.99c-.28,.6-.73,1.05-1.36,1.44-.63,.4-1.49,.68-2.57,.91-1.09,.23-2.47,.37-4.14,.44-1.68,.07-3.71,.1-6.08,.1s-4.41-.06-6.08-.18c-1.68-.12-3.06-.3-4.14-.56-1.09-.25-1.94-.57-2.57-.94-.63-.37-1.05-.7-1.26-1.21l-37.98-72.99h.95v72.95c0,.46-.77,.88-1.16,1.25-.39,.37-1.39,.67-2.44,.9-1.05,.23-2.54,.42-4.18,.56-1.64,.14-3.83,.21-6.42,.21s-4.65-.07-6.33-.21c-1.68-.14-3.04-.32-4.06-.56-1.01-.23-2.02-.53-2.4-.9-.39-.37-.88-.79-.88-1.25V50.89Zm357.73,1463.93c0,5.31-1.72,10.07-4.16,14.27-2.45,4.2-6.29,7.75-11.05,10.65-4.76,2.9-10.75,5.11-17.75,6.63-6.99,1.52-15.1,2.28-24.19,2.28-8.53,0-16.22-.68-23.01-2.04-6.78-1.36-12.54-3.43-17.22-6.2-4.69-2.77-8.68-6.22-11.16-10.35-2.48-4.13-4.13-8.96-4.13-14.5v-52.72c0-.45,.61-.85,1.03-1.2,.42-.36,1.37-.65,2.45-.87,1.08-.22,2.6-.4,4.35-.54,1.75-.13,4.04-.2,6.76-.2s4.89,.07,6.63,.2c1.75,.14,3.16,.31,4.21,.54,1.05,.22,2.13,.51,2.59,.87,.45,.36,1.01,.76,1.01,1.2v51.18c0,3.44,.34,6.42,1.67,8.94,1.33,2.52,3.07,4.61,5.56,6.26,2.48,1.65,5.37,2.89,8.84,3.72,3.46,.83,7.28,1.24,11.55,1.24s8.2-.42,11.62-1.27c3.43-.85,6.32-2.09,8.7-3.72,2.38-1.63,3.82-3.64,5.11-6.03,1.29-2.39,1.55-5.1,1.55-8.14v-52.18c0-.45,.6-.85,1.02-1.2,.42-.36,1.35-.65,2.4-.87,1.05-.22,2.56-.4,4.35-.54,1.78-.13,4.05-.2,6.71-.2s4.87,.07,6.58,.2c1.71,.14,3.11,.31,4.16,.54,1.05,.22,2.28,.51,2.7,.87,.42,.36,1.13,.76,1.13,1.2v51.98Zm104.98,18.29c-2.66,3.44-6.26,6.31-10.81,8.61-4.55,2.3-9.86,4.03-15.95,5.19-6.08,1.16-12.59,1.74-19.51,1.74-4.69,0-9.04-.25-13.06-.74-4.02-.49-7.57-1.08-10.65-1.77-3.08-.69-5.65-1.42-7.71-2.18-2.06-.76-3.55-1.43-4.46-2.01-.91-.58-1.56-1.42-1.94-2.51-.38-1.09-.58-2.67-.58-4.72,0-1.38,.07-2.55,.21-3.48,.14-.94,.37-1.7,.68-2.28,.32-.58,.73-.99,1.26-1.24,.52-.25,1.14-.37,1.84-.37,.98,0,2.36,.37,4.14,1.11,1.78,.74,4.07,1.55,6.87,2.44,2.8,.9,6.14,1.71,10.02,2.45,3.88,.74,8.37,1.11,13.48,1.11,3.36,0,6.36-.26,9.02-.77,2.66-.51,4.91-1.24,6.77-2.18,1.85-.94,3.27-2.1,4.25-3.48,.98-1.38,1.47-2.92,1.47-4.62,0-1.96-.84-3.65-2.52-5.06-1.68-1.41-3.86-2.66-6.56-3.75-2.69-1.09-5.75-2.12-9.18-3.08-3.43-.96-6.96-1.98-10.6-3.05-3.64-1.07-7.17-2.29-10.6-3.65-3.43-1.36-6.49-2.99-9.18-4.89-2.69-1.9-4.88-4.14-6.56-6.73-1.68-2.59-2.52-5.69-2.52-9.31,0-4.15,1.21-7.8,3.62-10.95,2.41-3.15,5.67-5.76,9.76-7.84,4.09-2.08,8.92-3.63,14.48-4.66,5.56-1.03,11.45-1.54,17.68-1.54,3.22,0,6.43,.16,9.65,.47,3.22,.31,6.22,.74,9.02,1.27,2.8,.54,5.28,1.14,7.45,1.81,2.17,.67,3.6,1.23,4.3,1.67,.7,.45,1.17,.83,1.42,1.14,.24,.31,.45,.73,.63,1.24,.17,.51,.3,1.16,.37,1.94,.07,.78,.11,1.75,.11,2.91,0,1.3-.05,2.39-.16,3.28-.11,.89-.28,1.63-.53,2.21-.25,.58-.6,1-1.05,1.27-.46,.27-1.07,.4-1.84,.4s-1.99-.31-3.67-.94c-1.68-.62-3.74-1.31-6.19-2.04-2.45-.74-5.28-1.41-8.5-2.01-3.22-.6-6.75-.9-10.59-.9-3.01,0-5.63,.24-7.87,.7-2.24,.47-4.11,1.12-5.61,1.94-1.5,.83-2.62,1.82-3.36,2.98-.73,1.16-1.1,2.39-1.1,3.69,0,1.92,.82,3.58,2.47,4.99,1.64,1.41,3.84,2.66,6.61,3.75,2.76,1.1,5.89,2.12,9.39,3.08,3.5,.96,7.06,1.98,10.7,3.05,3.64,1.07,7.2,2.29,10.7,3.65,3.5,1.36,6.61,2.99,9.34,4.89,2.73,1.9,4.93,4.13,6.61,6.7,1.68,2.57,2.52,5.59,2.52,9.08,0,4.55-1.33,8.55-3.99,11.99Zm134.39,13.36c-.77,.47-2.13,.76-4.09,.87-1.96,.11-4.65,.17-8.08,.17s-6.35-.03-8.34-.1c-1.99-.07-3.51-.2-4.56-.4-1.05-.2-1.78-.48-2.2-.84-.42-.36-.77-.84-1.05-1.42l-9.13-17.43h-50.99l-8.6,16.96c-.28,.63-.65,1.16-1.1,1.58-.46,.42-1.19,.76-2.2,1.01-1.01,.25-2.45,.41-4.3,.51-1.85,.09-4.29,.13-7.29,.13-3.22,0-5.74-.07-7.55-.2-1.82-.13-3.08-.46-3.78-.97-.7-.51-.94-1.24-.73-2.18,.21-.94,.73-2.19,1.57-3.75l41.86-76.9c.42-.76,.91-1.37,1.47-1.84,.56-.47,1.45-.83,2.68-1.07,1.22-.24,2.92-.4,5.09-.47,2.17-.07,5.03-.1,8.6-.1,4.13,0,7.41,.03,9.86,.1,2.45,.07,4.35,.22,5.72,.47,1.36,.25,2.34,.61,2.94,1.11,.59,.49,1.1,1.16,1.52,2.01l41.96,76.83c.84,1.61,1.36,2.88,1.57,3.82,.21,.94-.07,1.64-.84,2.11Zm440.09-358.84c0,122.82-99.57,222.39-222.39,222.39H402.41c-122.82,0-222.39-99.57-222.39-222.39V402.41c0-122.82,99.57-222.39,222.39-222.39h785.22c122.82,0,222.39,99.57,222.39,222.39v785.22Z"/></g><path class="cls-2" d="M1331.04,607.45v-125.44H793.28v-125.44h531.48c-18.32-58.07-72.02-98.72-135.44-98.72H396.69c-75.46,0-136.53,60.89-136.53,136.35v461.81H1331.04v-125.44H793.28v-123.12h537.76Zm-690.36-201.71c.84,0,1.59-.23,1.85,.57l10.51,30.4h32.43c.85,0,1.6,1.47,1.86,2.27,.26,.81-.03,2.17-.72,2.67l-26.23,19.21,9.93,30.6c.26,.8-.02,1.72-.7,2.22-.68,.5-1.6,.52-2.29,.03l-26.64-18.94-26.64,18.95c-.69,.49-1.61,.48-2.29-.02-.68-.5-.96-1.4-.7-2.2l9.93-30.56-26.23-18.99c-.69-.5-.98-2.16-.72-2.96,.26-.81,1.01-2.27,1.86-2.27h32.43l10.51-30.48c.27-.8,1.01-.49,1.85-.49Zm-28.79,196.36c.26,.8-.02,1.68-.7,2.18-.68,.5-1.6,.5-2.29,.01l-26.64-18.95-26.64,18.95c-.69,.49-1.61,.47-2.29-.03-.68-.5-.96-1.4-.7-2.2l9.93-30.56-26.23-18.99c-.69-.5-.98-1.69-.72-2.49,.26-.81,1.01-1.8,1.86-1.8h32.43l10.51-30.95c.27-.8,1.01-1.04,1.85-1.04s1.59,.29,1.85,1.08l10.51,30.91h32.43c.85,0,1.6,.99,1.86,1.8,.26,.81-.03,1.94-.72,2.43l-26.23,19.1,9.93,30.56Zm-76.29-263.85c.26-.81,1.01-1.43,1.86-1.43h32.43l10.51-31.33c.27-.8,1.01-1.22,1.85-1.22s1.59,.56,1.85,1.36l10.51,31.19h32.43c.85,0,1.6,.62,1.86,1.43,.26,.81-.03,1.69-.72,2.18l-26.23,19.04,9.93,30.51c.26,.8-.02,1.67-.7,2.17-.68,.5-1.6,.5-2.29,.01l-26.64-18.95-26.64,18.94c-.69,.49-1.61,.47-2.29-.03-.68-.5-.96-1.4-.7-2.2l9.93-30.56-26.23-18.95c-.69-.5-.98-1.36-.72-2.16Zm-13.57,67.49c.84,0,1.59-.23,1.85,.57l10.51,30.4h32.43c.85,0,1.6,1.47,1.86,2.27,.26,.81-.03,2.17-.72,2.67l-26.23,19.21,9.93,30.6c.26,.8-.02,1.72-.7,2.22-.68,.5-1.6,.52-2.29,.03l-26.64-18.94-26.64,18.95c-.69,.49-1.61,.48-2.29-.02-.68-.5-.96-1.4-.7-2.2l9.93-30.56-26.23-18.99c-.69-.5-.98-2.16-.72-2.96,.26-.81,1.01-2.27,1.86-2.27h32.43l10.51-30.48c.27-.8,1.01-.49,1.85-.49Zm-28.79,196.36c.26,.8-.02,1.68-.7,2.18-.68,.5-1.6,.5-2.29,.01l-26.64-18.95-26.64,18.95c-.69,.49-1.61,.47-2.29-.03-.68-.5-.96-1.4-.7-2.2l9.93-30.56-26.23-18.99c-.69-.5-.98-1.69-.72-2.49,.26-.81,1.01-1.8,1.86-1.8h32.43l10.51-30.95c.27-.8,1.01-1.04,1.85-1.04s1.59,.29,1.85,1.08l10.51,30.91h32.43c.85,0,1.6,.99,1.86,1.8,.26,.81-.03,1.94-.72,2.43l-26.23,19.1,9.93,30.56Zm-76.29-263.85c.26-.81,1.01-1.43,1.86-1.43h32.43l10.51-31.33c.27-.8,1.01-1.22,1.85-1.22s1.59,.56,1.85,1.36l10.51,31.19h32.43c.85,0,1.6,.62,1.86,1.43,.26,.81-.03,1.69-.72,2.18l-26.23,19.04,9.93,30.51c.26,.8-.02,1.67-.7,2.17-.68,.5-1.6,.5-2.29,.01l-26.64-18.95-26.64,18.94c-.69,.49-1.61,.47-2.29-.03-.68-.5-.96-1.4-.7-2.2l9.93-30.56-26.23-18.95c-.69-.5-.98-1.36-.72-2.16Zm-15.42,67.97c.27-.8,1.01-.8,1.85-.8s1.59-.07,1.85,.73l10.51,30.56h32.43c.85,0,1.6,1.47,1.86,2.27,.26,.81-.03,2.17-.72,2.67l-26.23,19.21,9.93,30.6c.26,.8-.02,1.72-.7,2.22-.68,.5-1.6,.52-2.29,.03l-26.64-18.94-26.64,18.95c-.69,.49-1.61,.48-2.29-.02-.68-.5-.96-1.4-.7-2.2l9.93-30.56-26.23-18.99c-.69-.5-.98-2.16-.72-2.96s1.01-2.27,1.86-2.27h32.43l10.51-30.48Zm-103.23-67.97c.26-.81,1.01-1.43,1.86-1.43h32.43l10.51-31.33c.27-.8,1.01-1.22,1.85-1.22s1.59,.56,1.85,1.36l10.51,31.19h32.43c.85,0,1.6,.62,1.86,1.43,.26,.81-.03,1.75-.72,2.25l-26.23,19,9.93,30.49c.26,.8-.02,1.67-.7,2.16-.68,.5-1.6,.5-2.29,0l-26.64-18.96-26.64,18.94c-.69,.49-1.61,.47-2.29-.03-.68-.5-.96-1.4-.7-2.2l9.93-30.56-26.23-18.89c-.69-.5-.98-1.42-.72-2.23Zm0,211.76c.26-.81,1.01-1.8,1.86-1.8h32.43l10.51-30.95c.27-.8,1.01-1.04,1.85-1.04s1.59,.29,1.85,1.08l10.51,30.91h32.43c.85,0,1.6,.99,1.86,1.8,.26,.81-.03,1.94-.72,2.43l-26.23,19.1,9.93,30.54c.26,.8-.02,1.69-.7,2.19-.68,.5-1.6,.51-2.29,.02l-26.64-18.95-26.64,18.95c-.69,.49-1.61,.47-2.29-.03-.68-.5-.96-1.4-.7-2.2l9.93-30.56-26.23-19.07c-.69-.5-.98-1.6-.72-2.41Zm92.59,207.45l-26.23,19.06,9.93,30.52c.26,.8-.02,1.68-.7,2.18-.68,.5-1.6,.5-2.29,.01l-26.64-18.95-26.64,18.95c-.69,.49-1.61,.47-2.29-.03-.68-.5-.96-1.4-.7-2.2l9.93-30.56-26.23-18.99c-.69-.5-.98-1.95-.72-2.75s1.01-2.06,1.86-2.06h32.43l10.51-30.7c.27-.8,1.01-.91,1.85-.91s1.59,.09,1.85,.89l10.51,30.72h32.43c.85,0,1.6,1.25,1.86,2.06,.26,.81-.03,2.28-.72,2.78Zm-14.15-51.61c-.69,.49-1.61,.47-2.29-.03-.68-.5-.96-1.4-.7-2.2l9.93-30.56-26.23-18.99c-.69-.5-.98-1.95-.72-2.76,.26-.81,1.01-2.06,1.86-2.06h32.43l10.51-30.69c.27-.8,1.01-.91,1.85-.91s1.59,.09,1.85,.89l10.51,30.72h32.43c.85,0,1.6,1.26,1.86,2.06,.26,.81-.03,2.07-.72,2.56l-26.23,19.16,9.93,30.57c.26,.8-.02,1.7-.7,2.2-.68,.5-1.6,.52-2.29,.03l-26.64-18.95-26.64,18.95Zm132.8,51.61l-26.23,19.06,9.93,30.52c.26,.8-.02,1.68-.7,2.18-.68,.5-1.6,.5-2.29,.01l-26.64-18.95-26.64,18.95c-.69,.49-1.61,.47-2.29-.03-.68-.5-.96-1.4-.7-2.2l9.93-30.56-26.23-18.99c-.69-.5-.98-1.95-.72-2.75,.26-.81,1.01-2.06,1.86-2.06h32.43l10.51-30.7c.27-.8,1.01-.91,1.85-.91s1.59,.09,1.85,.89l10.51,30.72h32.43c.85,0,1.6,1.25,1.86,2.06,.26,.81-.03,2.28-.72,2.78Zm-14.15-51.61c-.69,.49-1.61,.47-2.29-.03-.68-.5-.96-1.4-.7-2.2l9.93-30.56-26.23-18.99c-.69-.5-.98-1.95-.72-2.76,.26-.81,1.01-2.06,1.86-2.06h32.43l10.51-30.69c.27-.8,1.01-.91,1.85-.91s1.59,.09,1.85,.89l10.51,30.72h32.43c.85,0,1.6,1.26,1.86,2.06,.26,.81-.03,2.07-.72,2.56l-26.23,19.16,9.93,30.57c.26,.8-.02,1.7-.7,2.2-.68,.5-1.6,.52-2.29,.03l-26.64-18.95-26.64,18.95Zm132.8,51.61l-26.23,19.06,9.93,30.52c.26,.8-.02,1.68-.7,2.18-.68,.5-1.6,.5-2.29,.01l-26.64-18.95-26.64,18.95c-.69,.49-1.61,.47-2.29-.03-.68-.5-.96-1.4-.7-2.2l9.93-30.56-26.23-18.99c-.69-.5-.98-1.95-.72-2.75,.26-.81,1.01-2.06,1.86-2.06h32.43l10.51-30.7c.27-.8,1.01-.91,1.85-.91s1.59,.09,1.85,.89l10.51,30.72h32.43c.85,0,1.6,1.25,1.86,2.06,.26,.81-.03,2.28-.72,2.78Zm-14.15-51.61c-.69,.49-1.61,.47-2.29-.03-.68-.5-.96-1.4-.7-2.2l9.93-30.56-26.23-18.99c-.69-.5-.98-1.95-.72-2.76,.26-.81,1.01-2.06,1.86-2.06h32.43l10.51-30.69c.27-.8,1.01-.91,1.85-.91s1.59,.09,1.85,.89l10.51,30.72h32.43c.85,0,1.6,1.26,1.86,2.06,.26,.81-.03,2.07-.72,2.56l-26.23,19.16,9.93,30.57c.26,.8-.02,1.7-.7,2.2-.68,.5-1.6,.52-2.29,.03l-26.64-18.95-26.64,18.95Zm132.8,51.61l-26.23,19.06,9.93,30.52c.26,.8-.02,1.68-.7,2.18-.68,.5-1.6,.5-2.29,.01l-26.64-18.95-26.64,18.95c-.69,.49-1.61,.47-2.29-.03-.68-.5-.96-1.4-.7-2.2l9.93-30.56-26.23-18.99c-.69-.5-.98-1.95-.72-2.75,.26-.81,1.01-2.06,1.86-2.06h32.43l10.51-30.7c.27-.8,1.01-.91,1.85-.91s1.59,.09,1.85,.89l10.51,30.72h32.43c.85,0,1.6,1.25,1.86,2.06,.26,.81-.03,2.28-.72,2.78Zm0-204.94l-26.23,19.06,9.93,30.52c.26,.8-.02,1.68-.7,2.18-.68,.5-1.6,.5-2.29,.01l-26.64-18.95-26.64,18.95c-.69,.49-1.61,.47-2.29-.03-.68-.5-.96-1.4-.7-2.2l9.93-30.56-26.23-18.99c-.69-.5-.98-1.69-.72-2.49,.26-.81,1.01-1.8,1.86-1.8h32.43l10.51-30.95c.27-.8,1.01-1.04,1.85-1.04s1.59,.29,1.85,1.08l10.51,30.91h32.43c.85,0,1.6,.99,1.86,1.8,.26,.81-.03,2.02-.72,2.52Zm0-212.13l-26.23,19.06,9.93,30.52c.26,.8-.02,1.68-.7,2.18-.68,.5-1.6,.5-2.29,.01l-26.64-18.95-26.64,18.95c-.69,.49-1.61,.47-2.29-.03-.68-.5-.96-1.4-.7-2.2l9.93-30.56-26.23-18.99c-.69-.5-.98-1.32-.72-2.12,.26-.81,1.01-1.43,1.86-1.43h32.43l10.51-31.33c.27-.8,1.01-1.22,1.85-1.22s1.59,.56,1.85,1.36l10.51,31.19h32.43c.85,0,1.6,.62,1.86,1.43,.26,.81-.03,1.65-.72,2.14Z"/></g></g></svg>