<?xml version="1.0" encoding="UTF-8"?>
<svg id="Layer_2" xmlns="http://www.w3.org/2000/svg" viewBox="0 0 755.52 702.55"><defs>
<style>.cls-1,.cls-2{fill:#deae1b;}.cls-2,.cls-3{fill-rule:evenodd;}.cls-3{fill:#fff;}</style></defs><g id="Layer_1-2"><path class="cls-2" d="M561.38,234.03c26.15,16.57,48.81,36.41,66.79,58.69,11.59,14.34,21.17,29.87,28.6,46.66,14.34,32.54,20.88,71.92,16.64,107.51-7.95,55.5-40.27,105.28-88.56,142.8-19.61,15.31-15.68,8.47-20.58,33.73l-16.2,66.64c-1.04,6.76-5.65,12.48-12.56,12.48h-84.25c-6.84,0-11.89-5.65-12.48-12.48l-3.27-25.04c-1.49-11.22-.37-10.4-11.52-8.69-19.47,2.97-39.6,4.46-60.18,4.46-18.65,0-36.85-1.26-54.61-3.64-12.11-1.71-9.29-2.08-12.63,10.92l-5.65,21.99c-1.63,6.61-5.57,12.48-12.48,12.48h-84.25c-6.91,0-11.44-5.72-12.48-12.48l-14.49-71.17c-3.57-18.5-2.3-12.04-16.05-23.92-15.75-13.45-29.5-30.54-44.43-44.35-34.62-32.17-42.2-37.22-87.08-37.22-10.85,0-19.69-8.84-19.69-19.62v-100.15c0-10.85,8.84-19.69,19.69-19.69,39.67,0,41.09-18.42,57.65-48.37,14.26-25.71,32.24-47.55,56.47-67.69,4.75-4.01,3.57-4.75-.97-10.25-13-15.83-17.53-38.56-31.21-59.22-6.17-9.21-7.5-13.52,6.54-17.31,48.81-13.08,93.54-3.12,133.66,27.49,97.55-32.17,210.41-24.74,300.82,24.44,6.39,3.42,12.63,7.06,18.72,11h0Z"/><path class="cls-1" d="M658.64,393.77c11.66,3.72,22.14,4.61,30.98,3.49,1.78-.22,3.49-.6,5.13-.97-9.14-10.77-14.34-22.51-12.85-34.25,1.64-12.11,8.17-20.51,16.27-24.59,4.09-2.15,8.62-3.12,13.23-2.9,4.61,.15,9.14,1.48,13.15,4.08,7.88,4.98,14.04,14.49,14.86,28.75,.37,6.17-.52,12.71-3.19,19.17-1.71,4.16-4.09,8.25-7.28,12.18,6.69,4.68,13.97,8.91,21.32,12.41,3.27,1.86,5.28,5.35,5.28,9.06s-2.01,7.21-5.2,9.06c-2.82,1.64-6.09,1.86-8.99,.75-10.4-4.98-20.58-11.07-29.5-17.83-5.72,2.82-12.26,4.83-19.47,5.79-11.74,1.49-25.26,.37-40.05-4.31l6.32-19.91Zm54.24-8.47c1.71-2.15,3.05-4.38,3.94-6.61,1.41-3.49,1.93-6.91,1.71-10.11-.37-6.61-2.53-10.55-5.2-12.26-.89-.59-1.86-.89-2.75-.89-.97-.07-1.93,.15-2.9,.67-2.45,1.26-4.46,4.16-5.05,8.62-.82,6.24,3.34,13.45,10.25,20.58h0Z"/><path class="cls-3" d="M149.71,361.75c11.29,0,20.51-9.21,20.51-20.43s-9.21-20.5-20.51-20.5-20.43,9.21-20.43,20.5,9.14,20.43,20.43,20.43h0Z"/><path class="cls-3" d="M307.29,222.22c20.36-4.68,41.31-6.54,62.41-5.79,22.07,.75,44.28,4.31,66.12,10.11,5.13,1.86,8.02,7.36,6.61,12.63-1.41,5.35-6.61,8.62-12.04,7.65-20.51-5.5-41.08-8.77-61.37-9.51-19.32-.67-38.49,.97-57.13,5.28-6.17,.74-10.03-3.19-11.22-7.8-1.41-5.28,1.41-10.7,6.61-12.56h0Z"/><path class="cls-1" d="M328.98,21.4c6.69-6.69,14.71-12.11,23.63-15.83,8.54-3.56,17.98-5.57,27.71-5.57s19.24,2.01,27.79,5.57c8.92,3.72,16.94,9.14,23.63,15.83,5.5,5.57,10.18,11.89,13.67,18.95h-.07c3.49,6.91,5.87,14.34,6.98,22.21,.45,3.27,.67,6.69,.67,10.18s-.15,6.76-.59,10.03c-1.11,7.95-3.49,15.53-6.91,22.36-3.49,7.06-8.17,13.45-13.74,19.02-6.69,6.76-14.71,12.18-23.63,15.9-8.54,3.57-17.98,5.57-27.79,5.57h0c-9.73,0-19.17-2.01-27.71-5.57-8.92-3.72-16.94-9.14-23.63-15.9-6.76-6.69-12.11-14.71-15.82-23.55-3.57-8.62-5.5-17.98-5.5-27.79h0c0-9.81,1.93-19.17,5.5-27.79,3.72-8.92,9.06-16.87,15.82-23.63h0Z"/><path class="cls-3" d="M384.78,106.62v-1.04c1.41-.22,2.75-.59,4.16-1.04,2.67-.97,5.13-2.3,7.36-4.09,2.08-1.78,3.71-3.87,4.98-6.24,1.19-2.53,1.78-5.2,1.78-7.95s-.45-5.42-1.86-7.8c-1.26-2.16-2.97-4.01-4.98-5.5-2.08-1.49-4.46-2.75-6.91-3.64-2.6-1.04-5.2-2-7.95-2.82-1.56-.52-3.12-1.04-4.61-1.63-1.26-.45-2.45-.97-3.57-1.71-.82-.52-1.56-1.19-2.16-2.08-.52-.74-.67-1.71-.67-2.67s.22-1.93,.74-2.82c.52-.82,1.19-1.41,2.01-1.93,.97-.6,2.08-1.04,3.19-1.26,1.26-.22,2.53-.37,3.86-.37,2.08,0,4.16,.37,5.94,1.49,1.86,1.11,3.49,2.45,4.98,3.94,1.26,1.26,2.97,1.49,4.61,1.04,1.19-.3,2.3-.89,3.12-1.78,.82-.89,1.26-1.93,1.49-3.05,.22-1.34-.15-2.6-.67-3.72l-.07-.07c-.89-1.71-2.08-3.19-3.49-4.46-1.48-1.26-3.19-2.3-4.98-3.12-1.78-.82-3.64-1.41-5.65-1.78-.22-.07-.45-.07-.67-.15v-2.75c0-3.27-2.75-5.94-6.02-5.94h0c-3.34,0-6.02,2.67-6.02,5.94v3.12c-.45,.07-.97,.22-1.41,.37-2.6,.82-4.98,2.01-7.13,3.64-2.16,1.56-3.86,3.57-5.2,5.87-1.34,2.52-1.93,5.27-1.93,8.1,0,2.6,.52,5.2,1.86,7.43,1.26,2.08,2.9,3.79,4.83,5.27,2.01,1.56,4.23,2.75,6.61,3.79,2.38,.97,4.83,1.93,7.35,2.75h.07c1.63,.52,3.27,.97,4.83,1.56,1.41,.45,2.75,1.04,4.01,1.86,1.04,.59,1.93,1.34,2.67,2.3,.59,.89,.82,1.86,.82,2.97,0,.96-.22,1.93-.74,2.82-.59,.96-1.34,1.71-2.23,2.3-1.04,.67-2.15,1.19-3.34,1.56-1.26,.37-2.6,.52-3.94,.52-2.45,0-5.13-.3-7.35-1.41-2.01-1.04-3.57-2.75-4.76-4.68l-.07-.07-.07-.07c-1.19-1.49-2.67-2.6-4.53-2.9-1.56-.22-3.12,0-4.46,.82-1.41,.74-2.3,2.01-2.75,3.42-.6,1.86-.15,3.64,.74,5.2,1.04,2.08,2.45,3.87,4.16,5.35,1.71,1.49,3.64,2.75,5.65,3.72,2.01,.89,4.16,1.63,6.32,2.08v1.34c0,3.34,2.67,6.02,6.02,6.02h0c3.27,0,6.02-2.67,6.02-6.02h0Z"/></g></svg>