<?xml version="1.0" encoding="UTF-8"?><svg id="Layer_2" xmlns="http://www.w3.org/2000/svg" viewBox="0 0 444.1 519.84"><defs><style>.cls-1{fill:#221f20;fill-rule:evenodd;}</style></defs><g id="Layer_1-2"><path class="cls-1" d="M197.85,77.06C86.62,89.1,0,183.32,0,297.79c0,122.63,99.42,222.05,222.05,222.05s222.05-99.42,222.05-222.05c0-114.47-86.58-208.69-197.85-220.73v-20.84c0-2.32,1.92-4.2,4.24-4.2h11.88c3.64,0,6.84-1.52,9.32-4,2.28-2.28,3.8-5.48,3.8-9.12V13.08c0-3.6-1.52-6.84-3.8-9.28-2.48-2.28-5.68-3.8-9.32-3.8h-80.66c-3.6,0-6.84,1.52-9.32,3.8-2.28,2.44-3.76,5.68-3.76,9.28v25.81c0,3.64,1.48,6.84,3.76,9.12,2.48,2.48,5.72,4,9.32,4h11.92c2.32,0,4.2,1.88,4.2,4.2v20.84h0Zm24.21,40.65c-99.46,0-180.08,80.62-180.08,180.08s80.62,180.08,180.08,180.08,180.08-80.62,180.08-180.08S321.51,117.71,222.05,117.71h0Z"/><path class="cls-1" d="M350.12,107.26c-.8,1.04-1.6,2.04-2.4,3.08-3.96,5-7.88,10-11.84,15,8.64,6.8,17.24,13.6,25.85,20.36,3.96-5,7.88-10,11.84-15,.8-1.04,1.6-2.04,2.4-3.08,.48-.56,.92-1.16,1.4-1.76,.96-1.24,2.8-1.44,4.04-.48,.72,.6,1.44,1.16,2.2,1.76,1.36,1.08,2.76,2.16,4.12,3.24,1.96,1.52,4.32,2.08,6.68,1.8,2.16-.24,4.32-1.32,5.84-3.28,3.6-4.56,7.24-9.16,10.84-13.76,1.52-1.92,2.08-4.28,1.88-6.56-.36-2.24-1.44-4.44-3.36-5.96-14.36-11.28-28.73-22.61-43.05-33.89-1.92-1.52-4.32-2.08-6.56-1.92-2.28,.36-4.44,1.48-5.96,3.4-3.6,4.6-7.24,9.16-10.84,13.76-1.52,1.92-2.08,4.28-1.8,6.48,.28,2.32,1.36,4.52,3.28,6.04h0c2.12,1.64,4.24,3.32,6.36,5,1.24,.96,1.44,2.76,.48,4-.48,.6-.92,1.2-1.4,1.76h0Z"/><path class="cls-1" d="M242.58,295.39l103.38-66.89c1.2-.72,1.6-2.24,.92-3.44-.68-1.2-2.16-1.68-3.4-1.04l-111.51,52.21c-7.32-4.96-17.08-5.72-25.33-1.16-7.24,4-11.6,11.16-12.36,18.8l-25.21,11.8c-1.8,.84-2.16,3.56-.92,5.8l10.68,19.32c1.24,2.24,3.76,3.4,5.44,2.32l23.37-15.12c6.88,3.36,15.24,3.44,22.45-.56,8.28-4.56,12.8-13.24,12.48-22.05h0Z"/><path class="cls-1" d="M221.49,97.1h0c-4.64,0-8.48,3.8-8.48,8.48v20.44c0,4.64,3.84,8.48,8.48,8.48h0c4.68,0,8.48-3.84,8.48-8.48v-20.44c0-4.68-3.8-8.48-8.48-8.48h0Z"/><path class="cls-1" d="M121.19,124.27h0c-4.04,2.36-5.44,7.56-3.08,11.6,3.4,5.88,6.8,11.8,10.2,17.68,2.32,4.04,7.52,5.44,11.56,3.12h0c4.04-2.36,5.44-7.56,3.12-11.6-3.4-5.88-6.8-11.8-10.2-17.68-2.36-4.04-7.56-5.44-11.6-3.12h0Z"/><path class="cls-1" d="M47.93,197.97h0c-2.36,4.04-.96,9.24,3.08,11.6,5.92,3.4,11.8,6.8,17.68,10.2,4.04,2.32,9.28,.92,11.6-3.12h0c2.32-4,.92-9.24-3.12-11.56-5.88-3.4-11.8-6.8-17.68-10.2-4.04-2.36-9.24-.96-11.56,3.08h0Z"/><path class="cls-1" d="M21.28,298.43h0c0,4.68,3.84,8.48,8.48,8.48h20.44c4.68,0,8.48-3.8,8.48-8.48h0c0-4.68-3.8-8.48-8.48-8.48H29.77c-4.64,0-8.48,3.8-8.48,8.48h0Z"/><path class="cls-1" d="M48.49,398.73h0c2.32,4.04,7.52,5.44,11.56,3.12,5.92-3.44,11.8-6.84,17.68-10.24,4.04-2.32,5.44-7.52,3.12-11.56h0c-2.32-4.04-7.56-5.44-11.56-3.12-5.92,3.4-11.8,6.8-17.72,10.24-4.04,2.32-5.44,7.52-3.08,11.56h0Z"/><path class="cls-1" d="M122.15,472.03h0c4.04,2.32,9.28,.92,11.6-3.12,3.4-5.88,6.8-11.8,10.2-17.68,2.36-4.04,.96-9.24-3.08-11.6h0c-4.04-2.32-9.24-.92-11.6,3.12-3.4,5.88-6.8,11.8-10.2,17.68-2.32,4.04-.92,9.24,3.08,11.6h0Z"/><path class="cls-1" d="M222.61,498.63h0c4.68,0,8.48-3.84,8.48-8.48v-20.45c0-4.64-3.8-8.48-8.48-8.48h0c-4.64,0-8.48,3.84-8.48,8.48v20.45c0,4.64,3.84,8.48,8.48,8.48h0Z"/><path class="cls-1" d="M322.91,471.47h0c4.04-2.36,5.44-7.56,3.12-11.6-3.4-5.88-6.8-11.8-10.24-17.68-2.32-4.04-7.52-5.44-11.56-3.12h0c-4.04,2.32-5.44,7.56-3.12,11.6,3.44,5.88,6.84,11.8,10.24,17.68,2.32,4.04,7.52,5.44,11.56,3.12h0Z"/><path class="cls-1" d="M396.21,397.77h0c2.32-4.04,.92-9.24-3.12-11.6-5.88-3.4-11.8-6.8-17.68-10.2-4.04-2.32-9.24-.92-11.6,3.08h0c-2.32,4.04-.92,9.28,3.12,11.6,5.92,3.4,11.8,6.8,17.68,10.2,4.04,2.36,9.28,.96,11.6-3.08h0Z"/><path class="cls-1" d="M422.82,297.31h0c0-4.68-3.8-8.48-8.48-8.48h-20.44c-4.64,0-8.44,3.8-8.44,8.48h0c0,4.64,3.8,8.48,8.44,8.48h20.44c4.68,0,8.48-3.84,8.48-8.48h0Z"/><path class="cls-1" d="M395.65,197.01h0c-2.36-4.04-7.56-5.44-11.6-3.12-5.88,3.4-11.8,6.84-17.68,10.24-4.04,2.32-5.44,7.52-3.12,11.56h0c2.36,4.04,7.56,5.44,11.6,3.12,5.88-3.4,11.8-6.84,17.68-10.24,4.04-2.32,5.44-7.52,3.12-11.56h0Z"/><path class="cls-1" d="M321.95,123.71h0c-4.04-2.32-9.24-.92-11.56,3.12-3.44,5.88-6.84,11.8-10.24,17.68-2.32,4.04-.92,9.24,3.12,11.6h0c4.04,2.32,9.24,.92,11.56-3.12,3.4-5.88,6.8-11.8,10.24-17.68,2.32-4.04,.92-9.24-3.12-11.6h0Z"/></g></svg>