<?xml version="1.0" encoding="UTF-8"?><svg id="Layer_2" xmlns="http://www.w3.org/2000/svg" viewBox="0 0 344.19 295.24"><defs><style>.cls-1{fill:#fff;}.cls-2{fill:#da1e3f;}.cls-3{fill:#091f44;}</style></defs><g id="Layer_1-2"><g><path class="cls-2" d="M181.72,295.24c-34.4,0-67.95-12.21-94.49-34.37-26.85-22.42-44.9-53.78-50.82-88.29C22.65,92.37,76.71,15.91,156.92,2.15c8.3-1.42,16.75-2.15,25.12-2.15,34.4,0,67.95,12.2,94.49,34.36,26.85,22.42,44.9,53.78,50.82,88.3,13.76,80.21-40.3,156.67-120.51,170.43-8.3,1.42-16.75,2.15-25.11,2.15h0Z"/><path class="cls-1" d="M342.03,248.55l-6.02-11.29c-1.42-2.66-2.98-5.52-4.93-9.03l-.18-.32-.39-.69-.16-.29-.08-.14c-.13-.23-.26-.46-.38-.68-5.25-9.3-10.9-18.71-16.94-28.23,8.77-22.8,11.71-48.18,7.28-74.01C307.11,47.48,234.55-3.83,158.14,9.28c-29.64,5.08-55.49,19.12-75.28,38.85-1.18-.09-2.36-.18-3.52-.24-30.42-1.74-56.14,5.7-74.39,21.53l-3.64,3.15-1.31,1.13,.93,1.46,2.59,4.06c13,20.31,25.73,40.86,38.14,61.53-.48,10.04,.1,20.29,1.87,30.61,13.11,76.4,85.67,127.71,162.08,114.6,32.88-5.64,61.11-22.3,81.56-45.54,12.66,1.42,26.13,4,40.2,7.73l12.37,3.28,4.45,1.18-2.17-4.06Z"/><path class="cls-3" d="M312.45,125.22c12.37,72.11-36.05,140.6-108.17,152.97-72.11,12.37-140.6-36.05-152.97-108.17C38.94,97.91,87.37,29.42,159.48,17.05c72.11-12.37,140.6,36.05,152.97,108.17Z"/><path class="cls-1" d="M265.53,133.27c7.93,46.2-23.1,90.07-69.3,98-46.2,7.93-90.07-23.1-98-69.29-7.93-46.2,23.1-90.07,69.29-98,46.2-7.93,90.07,23.1,98,69.29Z"/><g><path class="cls-1" d="M142.02,51.33c-1.95,.8-4.31-.14-5.37-2.71-1.01-2.44,.02-4.98,1.97-5.79,2.04-.84,4.4,.1,5.47,2.72,1.06,2.57,.19,4.85-2.03,5.76l-.04,.02Z"/><path class="cls-1" d="M175.83,42.64c-.53-3.02-1.28-7.08-1.63-10.56l-.14,.02c-.14,3.5-.49,7.55-.8,10.1l-1.3,11.8-4.42,.56-4.09-10.93c-.94-2.49-2.31-6.37-3.22-9.78l-.14,.02c.34,3.48,.67,7.54,.88,10.75l.89,11.19-5.37,.68-1.73-32.33,6.56-.83,4.04,11.27c1.42,3.93,2.68,7.39,3.71,10.93h.09c.02-3.64,.28-7.34,.62-11.49l1.05-11.91,6.56-.83,6.01,31.78-5.56,.71-1.99-11.14Z"/><path class="cls-1" d="M198.12,47.9l-2.81,6.97-5.97-1.15,12.99-30.37,7.38,1.43,.03,32.89-5.97-1.15,.04-7.51-5.69-1.1Zm6.05-3.81l.25-6.83c.04-1.99,.23-5.23,.36-7.4l-.14-.03c-.74,2.05-1.84,5.25-2.53,7.03l-2.45,6.36,4.51,.87Z"/><path class="cls-1" d="M231.05,31.87c1.58,.38,3.74,1.21,5.95,2.35,3.62,1.86,5.7,4,6.66,6.64,1.34,3.49,.67,7.93-2.19,13.52-2.97,5.8-6.58,9.17-10.23,10.1-2.88,.89-6.2,.33-10.2-1.73-1.75-.9-3.41-1.96-4.45-2.66l14.46-28.23Zm-6.65,26.74c.21,.22,.64,.43,.94,.59,2.69,1.38,6.39-.07,10.45-8,3.01-5.88,3.31-10.25-.05-11.98-.38-.2-.77-.39-1.17-.44l-10.16,19.83Z"/><path class="cls-1" d="M259.57,72.59l-5.46-4.97-5.87,6.45,6.16,5.61-3.68,4.04-10.8-9.84,21.74-23.88,10.38,9.45-3.68,4.04-5.74-5.23-5,5.49,5.46,4.97-3.51,3.86Z"/><path class="cls-1" d="M293.26,88.8l-28.17,15.78-3.07-5.47,28.17-15.79,3.07,5.47Z"/><path class="cls-1" d="M269.33,112.83l31.07-8.79,1.56,5.53-10.81,8.24c-2.14,1.6-5.67,4.24-8.14,5.89l.03,.09c3.22-1.11,8.5-3.05,14.21-4.67l6.87-1.94,1.5,5.3-31.07,8.79-1.57-5.53,10.46-8.09c2.34-1.76,5.86-4.29,8.47-5.78l-.03-.09c-3.1,1.03-7.82,2.61-14.09,4.39l-6.96,1.97-1.5-5.3Z"/><path class="cls-1" d="M285.97,143.12c-.09-2.11,1.6-4,4.38-4.12,2.63-.11,4.68,1.72,4.77,3.82,.09,2.2-1.6,4.1-4.42,4.22-2.78,.12-4.62-1.48-4.72-3.87v-.05Z"/></g><g><path class="cls-1" d="M122.94,247.93c-1.82-1.07-2.49-3.52-1.09-5.91,1.33-2.27,3.98-3,5.8-1.94,1.9,1.11,2.58,3.57,1.15,6-1.41,2.4-3.75,3.08-5.81,1.87l-.04-.02Z"/><path class="cls-1" d="M153.09,237.81l-5.7,20.19c-1.29,4.56-.3,6.34,1.27,6.78,1.75,.5,3.35-.4,4.68-5.1l5.7-20.19,6.04,1.71-5.4,19.13c-2.25,7.98-6.47,11.46-12.47,9.77-6.5-1.84-7.77-7.03-5.57-14.82l5.42-19.18,6.04,1.7Z"/><path class="cls-1" d="M175.25,268.15c1.3,.71,3.5,1.23,5.32,1.22,2.97-.02,4.4-1.56,4.39-3.66-.01-2.35-1.45-3.49-4.19-5.25-4.42-2.66-6.12-6.05-6.13-8.98-.03-5.17,3.4-9.5,10.16-9.54,2.11-.01,4.12,.55,5.08,1.12l-.98,5.42c-.91-.57-2.3-1.09-4.12-1.08-2.68,.01-3.97,1.65-3.96,3.37,0,1.92,.97,2.92,4.48,5.01,4.28,2.56,5.87,5.81,5.89,9.21,.03,5.89-4.31,9.8-10.63,9.83-2.59,.01-5.13-.64-6.19-1.26l.88-5.42Z"/><path class="cls-1" d="M211.99,263.37l.66,7.49-5.85,1.68-2.21-32.96,7.23-2.08,14.96,29.29-5.85,1.68-3.38-6.7-5.57,1.6Zm3.67-6.14l-2.88-6.2c-.87-1.79-2.17-4.76-3.04-6.75l-.14,.04c.27,2.16,.74,5.52,.94,7.41l.7,6.77,4.42-1.27Z"/><path class="cls-1" d="M240.3,248.21c-1.82,1.06-4.29,.45-5.69-1.95-1.33-2.28-.66-4.94,1.16-6,1.9-1.11,4.37-.5,5.79,1.95,1.4,2.4,.84,4.78-1.22,5.98l-.04,.03Z"/></g><path class="cls-1" d="M327.41,248.02c-18.38-4.87-35.75-7.81-51.62-8.71-2.78-.16-5.54-.26-8.21-.29h-.28c-.41-.01-.82-.03-1.23-.06-4.34-.25-10.35-1.14-12.53-6l-2.22-3.8c-.97-.22-1.92-.43-2.85-.63-8.45-1.81-16.57-2.95-24.14-3.38-2.34-.13-4.66-.2-6.91-.2-9.15,0-17.53,1.11-24.91,3.31l-.36,.09c-1.28,.31-2.57,.47-3.82,.47-.28,0-.55,0-.83-.02-4.11-.24-7.41-2.32-8.83-5.57l-2.24-4.41c-2.53-.3-5.08-.52-7.59-.67-2.29-.13-4.59-.2-6.84-.2-21.96,0-41.8,6.34-55.86,17.84l-6.95,5.69-4.3-7.89c-2.03-3.73-4.04-7.4-5.98-10.93l-.58-1.05C62.02,173.78,33.52,125.85,3.64,79.15L.17,73.73l4.86-4.21c16.41-14.23,39.14-21.75,65.76-21.75,2.79,0,5.67,.08,8.54,.25,4.27,.24,8.67,.68,13.09,1.28l.85,.12c5.75,1.02,10.09,3.57,13.26,7.81,4.86-1.4,10.2-2.11,15.9-2.11,1.36,0,2.77,.04,4.18,.12,11.53,.66,24.66,3.92,40.13,9.97,3.42,1.34,6.53,3.36,9.22,6.02,1.59,1.57,2.87,3.2,3.93,4.65,13.3,.8,27.58,2.92,42.44,6.3l2.33,.53,1.59,1.79c2.7,3.05,5.52,6.27,8.61,9.85,.01,.01,1.25,1.44,1.25,1.44,.3,.34,.53,.61,.76,.89,38.32,44.57,69.58,88.14,92.91,129.48,.13,.23,1.3,2.33,1.3,2.33v.02c1.92,3.44,3.45,6.25,4.81,8.79l8.05,15.08-16.52-4.39Z"/><g><path class="cls-1" d="M324.47,231.96c1.66,2.97,3.28,5.93,4.85,8.87-22.28-5.91-43.08-9.02-61.75-9.25-.03,0-.06,0-.09,0-3.49-.09-6.96-.78-7.2-1.84h0l-4.12-7.08c-2.06-.51-4.1-.98-6.11-1.41-22.84-4.9-43.08-5.06-59.64-.14h0c-2.38,.58-4.55,.16-4.94-.99l-4.15-8.17h0c-1.2-.18-2.39-.34-3.59-.48-29.82-3.59-57.19,2.94-76.28,18.57-2.18-4-4.37-8-6.57-12t0,0C68.46,170.06,40.14,122.39,9.91,75.14c19.24-16.68,47.89-23.09,81.5-18.46,.21,.03,.43,.06,.64,.09,4.07,.72,6.98,2.35,9.27,6.03,.2,.28,.39,.56,.58,.85,.57,.85,1.15,1.7,1.72,2.55,14.53-6.48,34.52-4.17,60.41,5.95,2.48,.97,4.7,2.42,6.7,4.39,2.03,2,3.55,4.31,5.15,6.6,13.91,.59,28.93,2.7,44.79,6.32,2.92,3.29,5.79,6.59,8.64,9.88,.01,.01,.03,.03,.04,.04,.16,.19,.32,.37,.49,.56,.45,.53,.92,1.06,1.37,1.58h-.01c38.08,44.29,69.28,87.88,92.09,128.33h.01c.21,.37,.41,.74,.61,1.1,.18,.32,.37,.66,.56,.99h0Z"/><g><path class="cls-2" d="M323.3,229.86c-20.04-5.41-38.9-8.57-56.12-9.42-1.05-1.71-2.24-3.32-3.88-4.58-1.68-1.28-3.52-1.94-5.39-2.47-27.45-8.07-51.58-9.91-70.89-4.98-1.12-2.24-1.97-4.69-4.21-6.22-2.13-1.47-4.52-1.87-6.79-2.23-31.81-4.78-61.06,1.65-81.16,18.08,2.2,4,4.39,8,6.57,12,19.09-15.62,46.46-22.16,76.28-18.57,1.2,.14,2.39,.3,3.59,.48h0l4.15,8.18c.39,1.16,2.56,1.57,4.94,.99h0c16.56-4.92,36.8-4.75,59.64,.14,2.02,.43,4.05,.9,6.11,1.41l4.12,7.07h0c.25,1.07,3.71,1.76,7.2,1.85,.03,0,.06,0,.09,0,18.67,.23,39.47,3.35,61.75,9.25-1.94-3.63-3.95-7.29-6.02-10.97Z"/><path class="cls-2" d="M222.94,151.79c-2.61-3.86-6.2-7.21-10.53-8.66-25.8-8.56-47.43-10.89-64.36-6.33,2.32,3.96,4.62,7.92,6.89,11.89h.06c17.32-4.5,39.27-2.22,65.22,6.19,1.93,.64,3.93,1.83,5.66,3.09,2.05,1.5,3.34,3.26,4.71,5.32,.54,.03,1.09,.06,1.63,.09,16.91,1.05,35.37,4.28,54.92,9.64-2.73-3.88-5.54-7.79-8.4-11.72-19.29-5.23-37.5-8.39-54.19-9.41-.54-.03-1.08-.06-1.61-.09Z"/><path class="cls-2" d="M207.41,128.83c.4,.58-3.86-4.96-5.55-6.3-1.4-1.11-3.57-2.35-5.66-3.08-25.43-8.84-46.3-11.19-62.4-6.38,2.43,3.94,4.83,7.89,7.2,11.84,16.5-4.64,37.72-2.31,63.29,6.37,2.22,.76,4.18,1.64,6.1,3.27,1.95,1.67,3.41,3.66,4.82,5.75,1.06,.06,2.11,.12,3.18,.19,15.97,1.08,33.28,4.09,51.59,8.98-2.99-3.95-6.05-7.92-9.15-11.89-18.45-4.84-35.88-7.74-51.91-8.67-.5-.03-1-.06-1.49-.08Z"/><path class="cls-2" d="M191.61,105.84c-1.4-2.02-2.67-4.11-4.51-5.83-1.92-1.81-4.23-3.15-6.57-4.04-25.67-9.48-46.19-11.91-61.59-6.47,2.53,3.91,5.02,7.83,7.49,11.76,15.72-5.06,36.33-2.69,61.75,6.39,2.35,.84,4.55,1.98,6.51,3.8,1.9,1.76,3.4,3.83,4.85,5.92,15.95,.78,33.32,3.55,51.74,8.25-3.23-4-6.52-8-9.87-12.01-17.68-4.38-34.38-6.95-49.75-7.67-.02-.03-.03-.05-.06-.08Z"/><path class="cls-2" d="M173.09,84.37c1.65,.63,4.01,1.96,5.13,2.97,1.69,1.54,3.67,4.45,5.55,7.17,14.69,.66,30.61,3.01,47.43,7.02-3.46-4.02-6.97-8.05-10.54-12.07-15.86-3.61-30.88-5.72-44.79-6.32-1.6-2.29-3.13-4.6-5.15-6.6-2.01-1.98-4.21-3.41-6.7-4.39-25.89-10.13-45.88-12.43-60.41-5.95,2.6,3.86,5.18,7.73,7.72,11.6,15.13-5.95,35.64-3.46,61.76,6.57Z"/><path class="cls-2" d="M170.62,188.01c2.16,.33,4.04,1.17,5.96,2.65,2.22,1.72,3.09,3.36,4.34,5.79,18.95-4.76,42.63-2.81,69.79,5.32,1.92,.56,3.67,1.12,5.35,2.53,1.58,1.33,3.01,3.06,4.08,4.78,17.39,.9,36.46,4.14,56.72,9.67-2.21-3.72-4.49-7.47-6.83-11.24-19.76-5.45-38.39-8.71-55.45-9.75-.55-.04-1.1-.06-1.65-.09-1.17-1.87-2.18-3.59-4-4.98-1.81-1.39-3.73-2.02-5.75-2.63-26.79-8.16-50-10.2-68.52-5.56-1.06-1.96-2.05-3.87-3.73-5.48-1.72-1.65-3.75-2.62-5.86-2.94-32.99-5.2-63.03,1.21-83.58,18.01,2.26,3.99,4.49,7.98,6.72,11.97,20.34-16.62,49.99-23.03,82.4-18.04Z"/><path class="cls-2" d="M157.04,163.79c2.34,.34,4.5,.91,6.61,2.49,2.34,1.76,3.25,3.73,4.62,6.25,.14-.03,.27-.07,.41-.1,18.07-4.42,40.73-2.25,67.04,5.93,2.07,.65,4.06,1.4,5.85,2.94,1.6,1.38,2.95,3.18,4.06,4.92,.55,.03,1.1,.06,1.65,.1,17.09,1.06,35.75,4.34,55.53,9.81-2.47-3.81-5.02-7.64-7.63-11.5-19.72-5.44-38.32-8.71-55.36-9.77-.55-.04-1.09-.07-1.64-.1-1.24-1.89-2.51-3.67-4.31-5.13-1.82-1.47-3.84-2.35-5.91-3.03-26.19-8.3-48.54-10.49-66.25-5.99-.98-1.73-1.85-3.61-3.21-5.14-1.91-2.17-4.3-3.14-6.81-3.49-33.36-5.1-63.37,1.36-83.85,18.19,2.31,3.98,4.6,7.96,6.88,11.95,20.22-16.58,49.7-23.06,82.33-18.32Z"/></g><path class="cls-3" d="M149.93,140c-14.45-24.8-29.91-49.42-46.31-73.8-.57-.85-1.15-1.7-1.72-2.55-.25-.38-.51-.76-.77-1.14-.13-.19-.25-.37-.38-.57-2.19-3.08-4.96-4.51-8.69-5.17-.5-.07-1-.14-1.5-.2-33.25-4.41-61.57,2.04-80.64,18.58,16.62,26.02,32.72,52.15,48.2,78.39,.92,1.57,1.84,3.13,2.77,4.7,20.06-16.55,49.34-23.09,82.17-18.51,4.53,.37,8.67,3.36,11.91,8.96-.18-.31-4.83-8.37-5.02-8.68Z"/><g><g><path class="cls-1" d="M18.97,75.13c.79,.7,1.59,1.41,2.38,2.11,.71-.42,1.42-.83,2.14-1.23-.18,.92-.35,1.85-.52,2.78,.76,.77,1.51,1.54,2.26,2.31-.91-.13-1.8-.26-2.7-.38-.24,.9-.47,1.81-.71,2.72-.39-1.02-.77-2.04-1.16-3.06-.89-.2-1.78-.39-2.65-.58,.63-.53,1.27-1.05,1.91-1.57-.32-1.03-.64-2.06-.95-3.09Z"/><path class="cls-1" d="M90.92,60.88c.96,.91,1.91,1.81,2.87,2.72,1.09,.17,2.18,.34,3.28,.54-.45,.46-.9,.92-1.35,1.39,.88,.92,1.76,1.85,2.64,2.78-1.23-.63-2.46-1.25-3.69-1.86-.55,.41-1.09,.82-1.63,1.24-.31-.86-.62-1.72-.93-2.58-1.21-.66-2.43-1.31-3.64-1.96,1.02,.05,2.05,.12,3.08,.2-.21-.82-.42-1.64-.64-2.46Z"/><path class="cls-1" d="M74.16,59.88c.93,.86,1.87,1.73,2.8,2.59,1.03,.05,2.07,.1,3.11,.17-.41,.55-.82,1.11-1.23,1.67,.87,.89,1.73,1.78,2.59,2.68-1.19-.52-2.37-1.04-3.55-1.55-.5,.51-.99,1.02-1.48,1.55-.32-.89-.65-1.78-.97-2.67-1.17-.57-2.33-1.12-3.49-1.67,.96-.07,1.93-.12,2.9-.16-.23-.87-.46-1.73-.69-2.59Z"/><path class="cls-1" d="M58.43,60.83c.9,.82,1.81,1.64,2.71,2.47,.96-.07,1.93-.14,2.91-.19-.36,.64-.72,1.29-1.08,1.95,.84,.86,1.68,1.72,2.53,2.58-1.13-.42-2.25-.84-3.37-1.25-.44,.61-.88,1.22-1.31,1.85-.34-.93-.68-1.85-1.02-2.77-1.11-.47-2.21-.93-3.31-1.39,.89-.18,1.79-.36,2.69-.52-.25-.91-.5-1.81-.75-2.72Z"/><path class="cls-1" d="M43.91,63.71c.87,.78,1.74,1.57,2.61,2.35,.88-.19,1.78-.37,2.68-.54-.31,.74-.61,1.48-.91,2.23,.82,.83,1.63,1.66,2.45,2.49-1.06-.33-2.12-.65-3.16-.96-.38,.71-.76,1.42-1.13,2.14-.35-.96-.71-1.91-1.06-2.87-1.04-.38-2.08-.75-3.12-1.12,.81-.3,1.63-.59,2.46-.87-.27-.95-.54-1.9-.81-2.84Z"/><path class="cls-1" d="M30.71,68.48c.83,.74,1.66,1.48,2.5,2.23,.8-.31,1.61-.6,2.43-.89-.25,.83-.49,1.66-.73,2.5,.79,.8,1.57,1.59,2.36,2.4-.99-.23-1.97-.46-2.94-.67-.31,.8-.62,1.62-.93,2.43-.37-.99-.74-1.98-1.11-2.96-.97-.29-1.94-.57-2.9-.84,.73-.42,1.46-.83,2.2-1.22-.29-.99-.58-1.98-.88-2.97Z"/></g><g><path class="cls-1" d="M60.18,141.63c.77,.71,1.54,1.41,2.3,2.13,.73-.42,1.48-.83,2.23-1.23-.22,.92-.45,1.85-.66,2.79,.72,.78,1.45,1.55,2.18,2.33-.91-.14-1.81-.27-2.7-.4-.28,.91-.56,1.82-.83,2.74-.35-1.03-.69-2.06-1.04-3.09-.89-.2-1.77-.39-2.65-.58,.65-.54,1.32-1.07,1.99-1.59-.27-1.04-.55-2.08-.82-3.11Z"/><path class="cls-1" d="M133.41,127.43c.9,.92,1.79,1.84,2.68,2.77,1.08,.18,2.17,.37,3.26,.57-.49,.46-.97,.92-1.46,1.39,.82,.94,1.63,1.88,2.45,2.82-1.19-.64-2.38-1.28-3.57-1.9-.57,.41-1.14,.83-1.71,1.25-.25-.87-.5-1.74-.76-2.62-1.17-.67-2.34-1.33-3.5-1.99,1.02,.05,2.04,.12,3.07,.2-.15-.83-.31-1.67-.46-2.5Z"/><path class="cls-1" d="M116.63,126.37c.88,.87,1.77,1.75,2.65,2.63,1.03,.05,2.08,.12,3.12,.2-.45,.55-.91,1.11-1.35,1.68,.81,.91,1.62,1.81,2.43,2.72-1.16-.54-2.31-1.07-3.46-1.59-.53,.51-1.06,1.03-1.58,1.56-.27-.91-.54-1.81-.81-2.71-1.13-.57-2.26-1.14-3.39-1.7,.97-.07,1.94-.13,2.92-.17-.17-.88-.35-1.75-.53-2.62Z"/><path class="cls-1" d="M100.74,127.28c.86,.83,1.72,1.67,2.58,2.5,.98-.07,1.96-.12,2.95-.17-.41,.65-.81,1.3-1.21,1.96,.79,.87,1.59,1.75,2.38,2.62-1.11-.43-2.21-.86-3.31-1.28-.48,.61-.95,1.23-1.43,1.86-.29-.94-.57-1.87-.86-2.8-1.08-.48-2.17-.95-3.25-1.41,.9-.19,1.82-.37,2.73-.53-.2-.92-.39-1.83-.59-2.75Z"/><path class="cls-1" d="M85.93,130.16c.83,.79,1.67,1.58,2.5,2.37,.91-.19,1.82-.36,2.74-.53-.35,.74-.7,1.49-1.05,2.24,.78,.84,1.55,1.68,2.33,2.52-1.05-.33-2.09-.66-3.13-.98-.42,.71-.84,1.43-1.26,2.16-.3-.97-.61-1.93-.91-2.9-1.03-.38-2.05-.76-3.07-1.13,.83-.31,1.67-.6,2.51-.89-.22-.96-.44-1.92-.65-2.87Z"/><path class="cls-1" d="M72.35,134.95c.8,.75,1.6,1.5,2.41,2.25,.83-.3,1.66-.6,2.5-.88-.29,.83-.58,1.67-.87,2.51,.75,.81,1.51,1.62,2.26,2.42-.98-.23-1.96-.46-2.93-.68-.36,.81-.71,1.63-1.05,2.45-.33-1-.65-2-.98-2.99-.96-.29-1.92-.57-2.87-.85,.75-.42,1.5-.84,2.27-1.24-.24-1-.49-2-.73-2.99Z"/></g><g><path class="cls-1" d="M50.13,124.95c.78,.71,1.55,1.41,2.33,2.12,.73-.42,1.46-.83,2.21-1.23-.21,.92-.43,1.85-.63,2.79,.73,.77,1.46,1.54,2.2,2.32-.91-.14-1.81-.27-2.7-.39-.27,.91-.54,1.82-.8,2.74-.36-1.03-.71-2.05-1.07-3.07-.89-.2-1.78-.4-2.66-.58,.65-.54,1.31-1.06,1.98-1.58-.29-1.04-.57-2.07-.86-3.11Z"/><path class="cls-1" d="M123.22,110.7c.91,.92,1.82,1.84,2.73,2.75,1.09,.17,2.18,.36,3.27,.56-.48,.46-.96,.92-1.43,1.39,.84,.94,1.67,1.87,2.5,2.81-1.2-.64-2.4-1.27-3.6-1.89-.57,.41-1.13,.83-1.7,1.25-.26-.87-.53-1.74-.8-2.6-1.19-.67-2.37-1.33-3.55-1.99,1.02,.06,2.05,.12,3.08,.2-.17-.83-.34-1.66-.51-2.49Z"/><path class="cls-1" d="M106.41,109.66c.9,.87,1.79,1.75,2.69,2.62,1.04,.05,2.08,.11,3.12,.18-.44,.55-.88,1.11-1.32,1.68,.82,.9,1.65,1.8,2.47,2.7-1.16-.53-2.33-1.06-3.48-1.57-.52,.51-1.05,1.03-1.56,1.56-.28-.9-.56-1.8-.84-2.7-1.14-.57-2.29-1.14-3.42-1.7,.97-.07,1.94-.12,2.92-.17-.19-.87-.38-1.75-.56-2.62Z"/><path class="cls-1" d="M90.52,110.6c.87,.83,1.75,1.66,2.62,2.49,.97-.07,1.95-.13,2.94-.18-.4,.65-.79,1.3-1.18,1.96,.8,.87,1.61,1.73,2.42,2.6-1.12-.43-2.23-.85-3.33-1.27-.47,.61-.94,1.23-1.41,1.86-.3-.93-.6-1.86-.9-2.79-1.09-.48-2.18-.95-3.27-1.41,.9-.19,1.81-.36,2.73-.53-.21-.92-.42-1.83-.63-2.74Z"/><path class="cls-1" d="M75.75,113.48c.84,.79,1.69,1.58,2.53,2.37,.9-.19,1.81-.37,2.73-.53-.34,.74-.68,1.49-1.02,2.24,.79,.83,1.57,1.67,2.36,2.5-1.05-.33-2.1-.65-3.15-.97-.42,.71-.83,1.43-1.23,2.15-.32-.96-.63-1.92-.95-2.89-1.04-.38-2.06-.76-3.09-1.13,.83-.31,1.66-.6,2.51-.88-.23-.96-.46-1.91-.69-2.87Z"/><path class="cls-1" d="M62.23,118.27c.81,.75,1.62,1.5,2.43,2.24,.82-.31,1.65-.6,2.49-.89-.28,.83-.56,1.67-.83,2.52,.76,.8,1.52,1.61,2.28,2.41-.98-.23-1.96-.46-2.94-.68-.35,.81-.69,1.62-1.03,2.45-.33-.99-.67-1.99-1-2.98-.97-.29-1.93-.58-2.89-.85,.74-.42,1.5-.83,2.26-1.23-.26-1-.51-1.99-.77-2.99Z"/></g><g><path class="cls-1" d="M39.9,108.31c.78,.7,1.56,1.41,2.34,2.12,.72-.42,1.46-.83,2.2-1.23-.2,.92-.41,1.85-.6,2.78,.74,.77,1.48,1.54,2.22,2.31-.91-.13-1.81-.26-2.7-.38-.26,.9-.52,1.81-.78,2.73-.37-1.02-.73-2.05-1.1-3.07-.89-.2-1.78-.39-2.66-.58,.64-.54,1.29-1.06,1.96-1.58-.3-1.04-.59-2.07-.89-3.1Z"/><path class="cls-1" d="M112.73,94.02c.93,.91,1.85,1.83,2.78,2.74,1.09,.17,2.18,.36,3.28,.55-.47,.46-.94,.92-1.41,1.39,.85,.93,1.7,1.86,2.55,2.8-1.21-.63-2.43-1.26-3.63-1.87-.56,.41-1.12,.82-1.68,1.25-.28-.87-.56-1.73-.84-2.6-1.19-.66-2.39-1.32-3.58-1.97,1.02,.05,2.05,.12,3.08,.19-.18-.83-.36-1.66-.55-2.48Z"/><path class="cls-1" d="M95.91,93c.91,.87,1.82,1.74,2.73,2.61,1.04,.05,2.08,.11,3.13,.18-.43,.55-.87,1.11-1.3,1.67,.84,.9,1.68,1.8,2.51,2.7-1.17-.53-2.34-1.05-3.51-1.56-.52,.51-1.03,1.03-1.54,1.56-.3-.9-.59-1.8-.89-2.69-1.15-.57-2.3-1.13-3.45-1.68,.97-.07,1.94-.13,2.92-.17-.2-.87-.4-1.74-.61-2.61Z"/><path class="cls-1" d="M80.06,93.95c.88,.83,1.77,1.65,2.65,2.48,.97-.07,1.96-.13,2.94-.17-.39,.64-.77,1.3-1.15,1.96,.82,.87,1.64,1.73,2.46,2.6-1.12-.43-2.24-.85-3.35-1.26-.46,.61-.92,1.23-1.38,1.86-.31-.93-.63-1.86-.94-2.79-1.1-.47-2.2-.94-3.29-1.4,.9-.19,1.81-.36,2.72-.53-.22-.91-.45-1.83-.67-2.73Z"/><path class="cls-1" d="M65.34,96.84c.85,.79,1.71,1.57,2.56,2.36,.9-.19,1.81-.37,2.72-.53-.33,.74-.66,1.48-.99,2.23,.8,.83,1.59,1.67,2.39,2.5-1.06-.33-2.11-.65-3.16-.97-.4,.71-.81,1.43-1.2,2.15-.33-.96-.66-1.92-.99-2.88-1.04-.38-2.07-.75-3.1-1.12,.82-.31,1.65-.6,2.49-.89-.24-.95-.49-1.91-.73-2.86Z"/><path class="cls-1" d="M51.9,101.63c.82,.75,1.64,1.49,2.46,2.24,.82-.3,1.64-.6,2.47-.89-.27,.83-.54,1.67-.8,2.51,.77,.8,1.54,1.6,2.31,2.41-.99-.23-1.97-.46-2.94-.67-.34,.81-.67,1.62-1,2.44-.35-.99-.69-1.98-1.04-2.98-.97-.29-1.93-.57-2.89-.85,.74-.42,1.49-.83,2.24-1.24-.27-.99-.53-1.99-.8-2.98Z"/></g><g><path class="cls-1" d="M29.51,91.7c.78,.7,1.57,1.41,2.36,2.11,.72-.42,1.44-.83,2.18-1.23-.19,.92-.38,1.84-.57,2.78,.75,.77,1.5,1.54,2.25,2.32-.91-.13-1.81-.26-2.7-.38-.25,.9-.5,1.81-.74,2.73-.38-1.02-.76-2.05-1.14-3.07-.89-.2-1.77-.39-2.65-.58,.63-.54,1.28-1.06,1.93-1.58-.31-1.04-.62-2.07-.92-3.1Z"/><path class="cls-1" d="M101.96,77.41c.94,.91,1.88,1.82,2.82,2.73,1.09,.17,2.19,.35,3.29,.55-.46,.45-.92,.92-1.38,1.38,.87,.93,1.74,1.86,2.6,2.79-1.23-.63-2.45-1.25-3.67-1.87-.55,.41-1.11,.83-1.65,1.25-.3-.86-.59-1.73-.89-2.59-1.2-.66-2.41-1.32-3.61-1.96,1.02,.05,2.05,.11,3.08,.19-.19-.83-.39-1.65-.59-2.47Z"/><path class="cls-1" d="M85.16,76.4c.92,.87,1.85,1.74,2.77,2.6,1.04,.05,2.08,.11,3.12,.18-.42,.55-.85,1.11-1.27,1.67,.85,.9,1.71,1.79,2.56,2.69-1.18-.53-2.36-1.05-3.53-1.56-.51,.51-1.01,1.03-1.51,1.55-.31-.9-.62-1.79-.94-2.69-1.16-.56-2.32-1.12-3.47-1.67,.96-.07,1.93-.13,2.91-.17-.22-.87-.43-1.74-.65-2.6Z"/><path class="cls-1" d="M69.36,77.36c.9,.82,1.79,1.65,2.69,2.48,.97-.07,1.95-.13,2.93-.18-.38,.64-.75,1.29-1.12,1.95,.83,.86,1.66,1.73,2.5,2.6-1.13-.43-2.25-.85-3.36-1.26-.45,.61-.9,1.23-1.34,1.85-.33-.93-.65-1.86-.98-2.79-1.1-.47-2.2-.94-3.3-1.39,.89-.19,1.8-.36,2.71-.53-.24-.91-.47-1.82-.71-2.73Z"/><path class="cls-1" d="M54.72,80.24c.86,.78,1.72,1.57,2.59,2.35,.89-.19,1.8-.37,2.71-.53-.32,.74-.64,1.48-.95,2.23,.81,.83,1.62,1.67,2.43,2.5-1.06-.33-2.12-.65-3.17-.97-.39,.71-.78,1.43-1.17,2.15-.34-.96-.68-1.92-1.03-2.88-1.04-.38-2.08-.75-3.11-1.12,.82-.31,1.64-.6,2.47-.89-.26-.95-.51-1.9-.77-2.85Z"/><path class="cls-1" d="M41.39,85.03c.82,.74,1.65,1.49,2.48,2.24,.81-.31,1.63-.6,2.45-.89-.26,.83-.52,1.67-.77,2.51,.78,.8,1.56,1.6,2.34,2.41-.99-.23-1.97-.46-2.95-.68-.33,.81-.65,1.62-.96,2.44-.36-.99-.72-1.99-1.08-2.98-.97-.29-1.94-.57-2.9-.84,.73-.42,1.47-.84,2.22-1.24-.28-.99-.56-1.99-.84-2.98Z"/></g><g><path class="cls-1" d="M29.97,79.85c.81,.72,1.62,1.44,2.42,2.17,.76-.36,1.53-.71,2.31-1.06-.22,.87-.44,1.75-.65,2.64,.77,.78,1.54,1.57,2.3,2.35-.95-.18-1.89-.36-2.83-.52-.28,.85-.56,1.71-.84,2.58-.37-1-.75-2.01-1.12-3.01-.93-.24-1.86-.48-2.78-.72,.68-.48,1.37-.95,2.06-1.41-.3-1.01-.6-2.02-.89-3.03Z"/><path class="cls-1" d="M87.97,68.39c.94,.88,1.87,1.77,2.81,2.66,1.07,.11,2.14,.23,3.22,.36-.44,.5-.88,1.01-1.31,1.53,.87,.91,1.73,1.82,2.6,2.73-1.21-.58-2.41-1.15-3.61-1.71-.53,.46-1.05,.92-1.57,1.4-.31-.88-.62-1.75-.93-2.63-1.19-.61-2.37-1.22-3.55-1.82,.99,0,1.99,0,3,0-.21-.84-.43-1.69-.64-2.53Z"/><path class="cls-1" d="M71.67,68.37c.91,.84,1.82,1.69,2.73,2.53,1-.01,2.02-.01,3.03,0-.4,.6-.79,1.2-1.18,1.81,.85,.88,1.7,1.75,2.54,2.63-1.16-.48-2.31-.94-3.45-1.41-.47,.56-.95,1.13-1.41,1.7-.33-.91-.65-1.82-.98-2.72-1.14-.52-2.27-1.03-3.4-1.54,.93-.13,1.86-.25,2.81-.35-.23-.89-.46-1.77-.7-2.66Z"/><path class="cls-1" d="M56.48,70.29c.88,.8,1.76,1.6,2.65,2.41,.93-.13,1.87-.25,2.81-.36-.34,.69-.68,1.39-1.02,2.09,.83,.84,1.65,1.69,2.47,2.53-1.09-.38-2.19-.74-3.27-1.11-.42,.66-.83,1.32-1.24,2-.34-.94-.68-1.88-1.02-2.82-1.07-.43-2.14-.85-3.21-1.26,.85-.25,1.71-.48,2.58-.71-.25-.93-.5-1.86-.76-2.78Z"/><path class="cls-1" d="M42.53,74.12c.85,.76,1.69,1.52,2.54,2.29,.85-.25,1.71-.48,2.58-.71-.28,.78-.56,1.57-.84,2.37,.8,.81,1.59,1.62,2.39,2.44-1.02-.28-2.04-.55-3.06-.81-.35,.75-.7,1.52-1.05,2.29-.36-.97-.71-1.95-1.07-2.92-1.01-.33-2.01-.66-3.01-.98,.77-.37,1.55-.72,2.34-1.06-.27-.97-.55-1.94-.83-2.9Z"/></g><g><path class="cls-1" d="M40.51,96.44c.8,.72,1.6,1.45,2.41,2.17,.77-.36,1.55-.72,2.33-1.06-.24,.87-.46,1.76-.69,2.64,.76,.79,1.52,1.57,2.28,2.36-.95-.18-1.89-.36-2.83-.52-.3,.85-.59,1.71-.87,2.58-.36-1.01-.73-2.01-1.09-3.02-.93-.24-1.85-.48-2.77-.71,.69-.48,1.38-.95,2.09-1.41-.29-1.01-.57-2.02-.86-3.03Z"/><path class="cls-1" d="M98.87,84.96c.92,.89,1.85,1.78,2.77,2.67,1.07,.11,2.14,.23,3.22,.37-.45,.5-.9,1.01-1.35,1.53,.85,.91,1.71,1.83,2.56,2.75-1.2-.58-2.4-1.15-3.59-1.71-.54,.46-1.07,.92-1.6,1.4-.29-.88-.59-1.76-.89-2.64-1.18-.61-2.35-1.22-3.52-1.82,1,0,2,0,3,0-.2-.85-.4-1.69-.6-2.54Z"/><path class="cls-1" d="M82.52,84.93c.9,.84,1.8,1.69,2.7,2.54,1.01,0,2.02,0,3.04,0-.41,.6-.81,1.2-1.21,1.81,.84,.88,1.67,1.76,2.51,2.64-1.15-.48-2.3-.95-3.44-1.41-.49,.56-.97,1.13-1.45,1.7-.31-.91-.62-1.82-.94-2.74-1.13-.52-2.25-1.03-3.37-1.54,.93-.13,1.87-.25,2.82-.36-.22-.89-.44-1.78-.66-2.66Z"/><path class="cls-1" d="M67.25,86.86c.87,.8,1.75,1.61,2.62,2.41,.94-.13,1.88-.25,2.83-.36-.35,.69-.71,1.39-1.06,2.09,.82,.85,1.63,1.7,2.45,2.55-1.09-.38-2.18-.75-3.26-1.11-.43,.66-.86,1.33-1.28,2-.33-.94-.66-1.89-.99-2.83-1.07-.43-2.13-.84-3.2-1.25,.86-.25,1.73-.49,2.6-.71-.24-.93-.48-1.86-.72-2.79Z"/><path class="cls-1" d="M53.19,90.7c.84,.76,1.68,1.53,2.52,2.29,.86-.25,1.72-.49,2.59-.71-.3,.78-.59,1.57-.88,2.37,.79,.82,1.58,1.63,2.37,2.46-1.02-.28-2.04-.55-3.05-.82-.37,.76-.73,1.52-1.09,2.29-.34-.98-.69-1.95-1.04-2.93-1-.34-2-.66-3-.98,.78-.36,1.57-.72,2.36-1.06-.26-.97-.52-1.94-.79-2.91Z"/></g><g><path class="cls-1" d="M50.87,113.06c.8,.73,1.59,1.45,2.39,2.18,.77-.37,1.56-.72,2.35-1.06-.24,.88-.48,1.76-.72,2.65,.75,.79,1.5,1.58,2.26,2.36-.95-.18-1.89-.36-2.83-.53-.3,.86-.6,1.72-.9,2.59-.35-1.01-.7-2.02-1.06-3.03-.93-.25-1.85-.49-2.77-.72,.7-.48,1.4-.95,2.11-1.41-.28-1.01-.55-2.03-.83-3.04Z"/><path class="cls-1" d="M109.5,101.59c.91,.89,1.82,1.79,2.73,2.68,1.06,.11,2.14,.24,3.21,.37-.46,.5-.92,1.02-1.37,1.53,.84,.92,1.68,1.83,2.51,2.75-1.19-.58-2.38-1.16-3.56-1.73-.54,.46-1.09,.93-1.63,1.41-.28-.88-.56-1.77-.85-2.65-1.17-.62-2.34-1.23-3.5-1.83,1,0,2,0,3.01,.01-.19-.85-.37-1.7-.56-2.55Z"/><path class="cls-1" d="M93.13,101.55c.89,.85,1.78,1.7,2.67,2.55,1.01-.01,2.02-.01,3.05,0-.42,.6-.83,1.21-1.24,1.82,.82,.88,1.65,1.77,2.47,2.65-1.14-.48-2.29-.95-3.42-1.42-.5,.56-.99,1.13-1.48,1.71-.3-.92-.6-1.83-.9-2.75-1.12-.52-2.24-1.04-3.36-1.55,.94-.13,1.88-.25,2.83-.35-.21-.89-.41-1.78-.61-2.67Z"/><path class="cls-1" d="M77.79,103.47c.86,.81,1.73,1.62,2.59,2.43,.94-.13,1.89-.25,2.84-.36-.37,.69-.73,1.39-1.09,2.1,.8,.85,1.61,1.7,2.41,2.55-1.09-.38-2.17-.75-3.25-1.12-.44,.66-.87,1.33-1.31,2.01-.31-.95-.63-1.89-.95-2.84-1.07-.43-2.13-.85-3.19-1.26,.87-.25,1.74-.49,2.62-.71-.23-.93-.45-1.87-.68-2.8Z"/><path class="cls-1" d="M63.66,107.31c.83,.77,1.66,1.53,2.5,2.3,.86-.25,1.73-.49,2.61-.71-.31,.79-.61,1.58-.91,2.38,.78,.82,1.56,1.64,2.34,2.46-1.02-.28-2.04-.56-3.05-.82-.38,.76-.75,1.52-1.12,2.3-.33-.98-.67-1.96-1-2.94-1-.33-2-.66-2.99-.99,.79-.37,1.58-.72,2.38-1.06-.25-.97-.5-1.95-.75-2.92Z"/></g><g><path class="cls-1" d="M61.06,129.71c.79,.73,1.58,1.46,2.37,2.19,.78-.37,1.57-.72,2.36-1.07-.25,.88-.5,1.77-.75,2.66,.74,.79,1.49,1.58,2.23,2.37-.95-.18-1.89-.36-2.82-.53-.32,.86-.63,1.72-.93,2.59-.34-1.01-.68-2.02-1.03-3.03-.93-.25-1.85-.49-2.77-.72,.7-.48,1.41-.95,2.13-1.41-.26-1.02-.53-2.04-.8-3.05Z"/><path class="cls-1" d="M119.85,118.28c.89,.9,1.79,1.79,2.68,2.69,1.06,.11,2.13,.24,3.2,.37-.47,.51-.93,1.02-1.39,1.54,.82,.92,1.64,1.84,2.46,2.76-1.18-.59-2.36-1.16-3.53-1.73-.55,.46-1.1,.93-1.65,1.41-.27-.88-.53-1.77-.8-2.66-1.16-.62-2.31-1.24-3.47-1.85,1,0,2,0,3.01,.02-.17-.85-.34-1.71-.52-2.56Z"/><path class="cls-1" d="M103.49,118.23c.87,.85,1.75,1.71,2.63,2.56,1.01,0,2.02,0,3.04,0-.43,.6-.85,1.21-1.27,1.83,.81,.89,1.62,1.77,2.43,2.66-1.14-.48-2.27-.96-3.4-1.43-.51,.56-1.01,1.13-1.5,1.71-.29-.92-.57-1.84-.86-2.75-1.11-.52-2.23-1.05-3.34-1.56,.94-.13,1.89-.24,2.84-.34-.19-.9-.38-1.79-.57-2.68Z"/><path class="cls-1" d="M88.12,120.13c.85,.81,1.7,1.62,2.56,2.43,.94-.13,1.89-.25,2.84-.36-.38,.69-.75,1.4-1.12,2.11,.79,.85,1.58,1.71,2.38,2.56-1.08-.38-2.16-.76-3.24-1.12-.45,.66-.89,1.33-1.33,2.01-.3-.95-.6-1.9-.91-2.84-1.06-.43-2.12-.86-3.17-1.28,.87-.24,1.75-.48,2.63-.7-.21-.94-.43-1.87-.64-2.81Z"/><path class="cls-1" d="M73.92,123.97c.82,.77,1.64,1.54,2.47,2.31,.86-.25,1.74-.49,2.62-.71-.32,.79-.63,1.58-.94,2.39,.77,.82,1.54,1.64,2.3,2.47-1.02-.28-2.03-.56-3.04-.83-.39,.76-.77,1.53-1.15,2.3-.32-.98-.64-1.96-.96-2.94-1-.34-1.99-.67-2.98-1,.79-.36,1.59-.72,2.4-1.06-.24-.98-.48-1.95-.72-2.93Z"/></g></g></g></g></g></svg>