<?xml version="1.0" encoding="UTF-8"?><svg id="Layer_2" xmlns="http://www.w3.org/2000/svg" viewBox="0 0 680.53 634.92"><defs><style>.cls-1{fill:#231f20;}</style></defs><g id="Capa_1"><g><path class="cls-1" d="M165.08,148.09l-18.28,53.59c-1.99,5.97-3.23,10.07-4.48,15.92h-.25c-1-4.97-2.61-10.57-4.73-16.66l-17.66-52.85h-14.05l-12.31,83.93h11.69l5.72-47.37c1-8.21,1.87-14.92,2.36-21.76h.12c1,5.47,3.23,12.44,5.35,18.78l17.04,50.36h12.19l18.03-53.97c1.87-5.97,3.23-11.19,4.1-15.17h.25c.5,4.97,1.24,11.07,2.61,20.64l7.09,48.49h12.06l-12.68-83.93h-14.18Z"/><path class="cls-1" d="M210.23,232.02l6.96-19.65h35.69l6.96,19.65h12.81l-30.84-83.93h-12.68l-30.59,83.93h11.69Zm20.77-58.57c1.61-4.23,2.86-8.58,3.85-12.68h.25c.99,4.35,2.11,8.33,3.73,12.56l10.94,29.97h-29.6l10.82-29.84Z"/><path class="cls-1" d="M309.46,147.72c-9.2,0-18.65,.37-25.12,.5v83.81c6.22,0,12.81,.5,21.26,.5,27.48,0,46.76-14.67,46.76-43.4s-16.04-41.41-42.9-41.41Zm-2.61,75.1c-3.36,0-7.96-.25-11.07-.75v-64.66c3.11-.13,8.21-.37,12.56-.37,21.76,0,31.96,11.44,31.96,32.83,0,22.76-13.8,32.95-33.45,32.95Z"/><polygon class="cls-1" points="411.79 157.54 411.79 148.09 368.65 148.09 368.65 232.02 411.79 232.02 411.79 222.45 380.09 222.45 380.09 193.35 410.3 193.35 410.3 184.15 380.09 184.15 380.09 157.54 411.79 157.54"/><rect class="cls-1" x="471.83" y="148.09" width="11.44" height="83.93"/><path class="cls-1" d="M521.82,148.09h-15.05v83.93h11.19v-26.98c0-13.3-.37-33.45-.87-42.4,2.73,5.6,5.72,11.32,9.57,17.41l31.96,51.98h14.92v-83.93h-11.07v23.87c0,13.93,.37,34.57,.87,44.89-3.11-5.97-6.59-12.31-10.32-18.4l-31.21-50.36Z"/><path class="cls-1" d="M254.75,257.21h-52.9v119.89c0,24.15-6.9,33.35-28.46,33.35s-28.46-11.21-28.46-31.91v-121.32h-53.48v123.91c0,41.11,16.39,74.18,78.78,74.18,52.04,0,84.52-24.72,84.52-81.08v-117.01Z"/><path class="cls-1" d="M405.68,386.87c0-60.66-72.45-51.17-72.45-75.61,0-7.48,6.33-13.51,21.28-13.51,11.78,0,23.28,2.01,34.5,5.18l2.87-46.29c-12.07-2.01-25.59-3.16-35.36-3.16-51.17,0-80.79,24.72-80.79,63.25,0,66.41,72.45,49.74,72.45,77.91,0,8.91-8.34,14.37-21.27,14.37-14.66,0-30.76-3.16-41.4-6.9l-2.87,48.87c12.94,2.88,26.74,4.03,39.96,4.03,51.75,0,83.09-29.32,83.09-68.14Z"/><path class="cls-1" d="M471.23,257.21l-63.25,194.06h52.9l9.78-31.62h59.8l10.06,31.62h58.36l-66.41-194.06h-61.24Zm12.36,120.46l6.62-21.27c4.02-12.65,7.76-25.59,9.49-36.8h.58c2.01,12.08,5.46,22.43,8.91,33.64l7.76,24.44h-33.35Z"/><polygon class="cls-1" points="103.63 118.4 142.23 90.57 180.53 118.37 165.87 73.19 204.34 45.3 156.86 45.3 142.21 0 127.44 45.3 79.98 45.3 118.43 73.19 103.63 118.4"/><polygon class="cls-1" points="304.82 118.4 343.42 90.57 381.72 118.37 367.05 73.19 405.52 45.3 358.05 45.3 343.4 0 328.63 45.3 281.16 45.3 319.61 73.19 304.82 118.4"/><polygon class="cls-1" points="544.58 0 529.81 45.3 482.35 45.3 520.79 73.19 506 118.4 544.6 90.57 582.9 118.37 568.24 73.19 606.7 45.3 559.23 45.3 544.58 0"/><rect class="cls-1" width="52.46" height="634.92"/><rect class="cls-1" x="628.07" width="52.46" height="634.92"/><rect class="cls-1" x="502.45" y="477.72" width="52.46" height="157.2"/><rect class="cls-1" x="376.84" y="477.72" width="52.46" height="157.2"/><rect class="cls-1" x="251.23" y="477.72" width="52.46" height="157.2"/><rect class="cls-1" x="125.61" y="477.72" width="52.46" height="157.2"/></g></g></svg>